<?xml version="1.0" encoding="UTF-8"?><svg id="_Ñëîé_2" xmlns="http://www.w3.org/2000/svg" viewBox="0 0 1709.99 1578.73"><defs><style>.cls-1,.cls-2{stroke-width:0px;}.cls-2{fill:#fff;}</style></defs><path class="cls-2" d="m1657.19,789.36c0-56.1-5.96-111.28-17.5-164.85,47.87-53.58,66.15-99.62,52.14-134.57-13.69-34.18-55.01-54.57-123.02-60.91-6.42-12.22-13.16-24.29-20.25-36.18l68.4-78.28c3.67-4.31,5.98-6.83,6.92-7.54,1.58-1.25,3.21-2.25,4.88-2.99l4.83-1.54,13.91-48.4-80.01-22.99-11.88,41.36-24.12,33.07c-1.04,1.9-2.22,2.66-3.58,2.27-1.81-.52-2.64-1.85-2.5-4.01l-3.36-41.71,11.69-40.68-90.81-26.09-13.04,45.37c-13.73-13.73-27.89-26.88-42.44-39.45l2.93-17.96-30.91-5.05C1223.53,71.43,1056.88,13.5,881.32,13.5s-343.02,58.23-479.14,165.52l-13.15,2.01-.29,8.81c-19.36,15.96-38.07,32.93-56.04,50.91-6.37,6.37-12.58,12.87-18.7,19.42l-9.02-36.72c-16.03-9.32-33.45-14.44-52.25-15.37-14.88-.68-32.21,1.41-51.99,6.27-28.42,6.99-49.79,18.15-64.11,33.48-17.4,18.51-22.63,41.86-15.7,70.05l28.26,114.95c4.53,18.43,11.59,33.41,21.15,44.96-42.52,96.95-64.89,202.54-64.89,311.57,0,61.98,7.27,122.84,21.31,181.64-7.6,6.59-14.88,13.12-21.78,19.57-74.74,69.89-103.93,127.06-86.75,169.92,16.66,41.58,77.1,62.98,174.07,62.98,14.15,0,29.1-.48,44.78-1.39,27.78,41.18,59.71,80,95.62,115.9,6.73,6.73,13.59,13.27,20.52,19.72h-33.9l-23.69,127.19-1.22,3.84c-.68,1.22-1.62,2.16-2.83,2.83v28.15h55.29v-28.36c-.54,0-1.35-.27-2.43-.82-.54-.27-1.08-.61-1.62-1.03-1.62-1.1-2.43-2.6-2.43-4.52v-2.25c0-1.51.54-2.95,1.62-4.31.41-.55.74-.89,1.01-1.03.81-.55,1.48-.82,2.03-.82h16.81c.54,0,1.35.34,2.43,1.02.27.14.67.41,1.21.81,1.08,1.36,1.62,2.78,1.62,4.27v2.24c0,1.63-.64,3.08-1.92,4.38-1.29,1.3-2.4,2-3.35,2.14v28.28h63.79v-27.75c-1.35-.94-2.57-2.26-3.65-3.95-1.08-1.68-1.69-2.66-1.82-2.93-.4-.81-.68-1.69-.81-2.64l-17.52-83.01c13.67,10.78,27.65,21.05,41.92,30.84v53.35c0,1.21-.2,2.36-.61,3.45-.27.68-.84,1.65-1.72,2.94-.88,1.29-1.93,2.2-3.14,2.73v26.97h78.38c8.23,0,15.36-.84,21.36-2.53,6.01-1.7,11.85-4.9,17.52-9.63,3.09-2.56,5.5-6.01,7.29-10.29,13.53,6.09,27.23,11.81,41.1,17.11l1.14,5.35h13.25c83.24,29.91,171.92,45.51,263,45.51s186.15-16.79,271.99-48.86c9.74,5.06,21.35,7.59,34.81,7.59,15.66,0,28.69-3.51,39.08-10.53,11.34-7.56,17.01-17.82,17.01-30.79v-7.13c6.01-3.19,11.99-6.44,17.92-9.8v17.9c0,1.08-.24,2.16-.71,3.25-.48,1.08-1.11,2.19-1.92,3.34-.81,1.15-1.82,2-3.04,2.53v26.97h59.94v-27.02c-1.22-.54-2.33-1.59-3.34-3.15-1.01-1.56-1.52-3.49-1.52-5.79v-21.75c0-1.08.13-2.03.4-2.84.13-.27,1.53-.41,4.2-.41h2.8c1.6,0,2.94.41,4.01,1.22.53.41,1.2,1.02,2,1.83,1.6,1.63,2.7,3.36,3.3,5.19.6,1.83.9,3.83.9,6v46.73h55.29v-26.97c-1.21-.53-2.33-1.59-3.34-3.14-1.01-1.56-1.52-3.48-1.52-5.78v-18.45c0-6.35-1.42-11.29-4.25-14.8-1.76-2.17-5.54-5.01-11.34-8.53-.68-.41-1.01-1.14-1.01-2.23,0-1.21.4-2.02,1.21-2.43,6.75-3.51,11.48-8.92,14.18-16.22,2.03-5.54,3.04-13.11,3.04-22.71,0-4.86-.85-9.45-2.48-13.81,3.85-3.23,7.69-6.49,11.49-9.8v8.21c1.75,1.08,3.14,2.4,4.15,3.96,1.01,1.55,1.72,2.8,2.13,3.75.41.96.61,2.17.61,3.66v89.22c0,1.21-.2,2.36-.61,3.45-.27.68-.85,1.65-1.72,2.94-.88,1.29-1.92,2.2-3.14,2.73v26.97h123.94v-58.33h-47.59v11.44c0,1.9-.24,3.44-.71,4.59-.47,1.16-1.25,2.52-2.33,4.09-1.08,1.56-2.36,2.69-3.85,3.37-1.49.68-2.77,1.02-3.84,1.02h-4.86c-2.3,0-3.65-.27-4.05-.81-.27-.27-.4-1.16-.4-2.65v-23.03c0-1.35.1-2.54.3-3.57.2-1.02.44-1.73.71-2.14.4-1.36,1.22-2.04,2.45-2.04h30.56v-31.19h-30.38c-1.49,0-2.5-.27-3.04-.81-.4-.41-.6-1.56-.6-3.45v-21.87c0-.68.13-1.42.4-2.23.27-.41,1.67-.61,4.21-.61h3.8c1.34,0,2.7.27,4.11.81,1.4.54,2.5,1.35,3.31,2.43,1.34,1.89,2.14,3.11,2.41,3.65.53,1.08.8,2.36.8,3.84v8.1h48.6v-52.65h-106.37c6.93-6.45,13.79-12.99,20.52-19.72,146.54-146.54,227.25-341.38,227.25-548.63ZM251.18,336.5l-15.5,3.81,3.33,13.54c-5.32,7.81-10.51,15.69-15.52,23.67l-21.01-85.48c-1.18-4.78-.75-9.16,1.29-13.16,2.03-3.99,5.43-6.58,10.21-7.75,5-1.23,9.48-.64,13.45,1.75,3.96,2.4,6.54,5.99,7.71,10.76l6.62,26.95,36-8.85c-9.21,11.36-18.07,22.95-26.59,34.75Zm107.62,1110.31c-.27.54-1.08.95-2.43,1.21-1.35.27-2.5.34-3.44.2-2.57.41-4.45-.06-5.67-1.41-1.22-1.35-1.69-3.37-1.42-6.08l6.28-32.2,8.1,32.4c.41,2.16-.07,4.12-1.42,5.87Zm156.95,33c-.33,1.62-1.1,2.91-2.31,3.86-1.74,1.36-3.81,2.03-6.22,2.03h-10.64c-.67,0-1.14-.2-1.41-.61-.4-.68-.6-1.63-.6-2.85v-19.93c7.16,4.13,14.37,8.19,21.65,12.09-.02,2.08-.17,3.91-.49,5.41Zm808.95-53.54c1.64-1.15,3.28-2.3,4.92-3.46-.99,2.12-2.62,3.28-4.92,3.46Z"/><path class="cls-1" d="m881.32,1570.23c-90.76,0-179.53-15.31-263.87-45.51h-16.43l-1.41-6.65c-11.38-4.39-22.94-9.19-34.45-14.29-1.79,3.01-3.93,5.57-6.42,7.62-6.16,5.14-12.67,8.71-19.35,10.6-6.43,1.81-14.07,2.72-22.72,2.72h-83.38v-35.24l2.99-1.31c.34-.15.68-.48,1.03-.98.85-1.24,1.12-1.79,1.18-1.93.18-.5.27-1.04.27-1.63v-50.72c-9.92-6.85-19.7-13.94-29.22-21.18l14.77,70.02c.06.39.15.73.3,1.05.1.17.44.73,1.59,2.53.73,1.14,1.49,1.99,2.29,2.54l2.15,1.49v35.36h-73.79v-37.62l3.92-.56c.15-.11.44-.34.87-.77.47-.47.47-.71.47-.85v-2.24c0-.09,0-.31-.21-.68l-.28-.17c-.18-.11-.32-.2-.43-.26h-15.31c-.51.66-.51,1.02-.51,1.16v2.25c0,.12.01.19.02.21,0,0,.07.07.21.17l.24.17c.28.22.56.4.83.53.28.15.48.23.61.28h4.57v38.36h-65.29v-36.1l2.58-1.43c.28-.16.5-.34.68-.58l.93-2.95,24.4-130.97h25.46c-4.12-3.94-7.88-7.6-11.45-11.18-35.07-35.06-66.89-73.5-94.63-114.28-14.83.82-29.02,1.23-42.23,1.24-49,0-88.98-5.45-118.84-16.19-30.91-11.12-51.05-27.92-59.87-49.93-18.02-44.97,11.58-104,87.98-175.44,6.12-5.72,12.71-11.66,19.63-17.7-13.77-58.69-20.75-119.19-20.75-179.86,0-108.25,21.56-212.8,64.1-310.81-9.05-11.76-15.85-26.72-20.22-44.53l-28.26-114.94c-7.33-29.82-1.64-54.94,16.91-74.67,14.91-15.97,37.3-27.72,66.56-34.91,20.15-4.95,38.12-7.1,53.41-6.41,19.53.97,37.87,6.37,54.53,16.04l1.84,1.07,7.34,29.86c4.46-4.69,8.53-8.87,12.5-12.84,17.33-17.33,35.71-34.08,54.65-49.79l.35-10.71,15.96-2.44c68.06-53.46,143.77-94.84,225.04-122.98,82.02-28.4,168.2-42.8,256.16-42.8s173.73,14.33,255.56,42.59c81.11,28.01,156.68,69.19,224.66,122.41l34.57,5.65-3.29,20.14c11.79,10.26,23.39,20.96,34.58,31.92l12.1-42.07,100.42,28.85-12.82,44.61,2.94,36.44,21-28.8,13.02-45.31,89.62,25.75-16.03,55.77-7.1,2.27c-1.2.56-2.4,1.31-3.57,2.23-.25.2-1.45,1.27-6.22,6.87l-66.06,75.6c5.86,9.94,11.65,20.3,17.27,30.89,68.39,6.82,110.28,28.26,124.5,63.77,7.43,18.55,6.47,40.07-2.85,63.98-8.79,22.53-25.1,47.38-48.52,73.88,11.33,53.49,17.08,108.46,17.08,163.42,0,208.58-81.22,404.67-228.71,552.16-3.58,3.58-7.33,7.25-11.45,11.18h98.77v62.65h-58.6v-13.1c0-.69-.1-1.26-.29-1.64-.01-.02-.35-.63-1.96-2.9-.15-.2-.43-.47-1.08-.72-.82-.31-1.58-.47-2.3-.47h-3.41v18.96h34.03v40.91h33.61v68.33h-196.62v-51.73c0-1.63-.22-3.12-.65-4.44-.36-1.08-1.07-2.17-2.12-3.24-.83-.84-1.29-1.22-1.49-1.37-.2-.15-.69-.18-.95-.18h-2.41v20c0,1.31.24,2.34.71,3.07.57.87,1.01,1.23,1.19,1.31l2.96,1.32v35.27h-69.94v-35.24l2.99-1.31c.23-.1.58-.3.96-.84.6-.85,1.08-1.68,1.43-2.48.19-.43.28-.84.28-1.23v-9.39c-2.57,1.41-5.2,2.83-7.92,4.29v4.13c0,14.68-6.47,26.43-19.24,34.95-11.16,7.54-25.26,11.37-41.86,11.37-13.3,0-25.1-2.41-35.09-7.15-86.74,32.13-178.14,48.42-271.71,48.42Zm-272.2-55.51h10.07l.82.29c83.49,30.01,171.41,45.22,261.31,45.22s184.03-16.33,270.24-48.54l2.08-.78,1.97,1.03c8.98,4.67,19.91,7.03,32.5,7.03,14.57,0,26.78-3.25,36.29-9.67,9.97-6.65,14.81-15.36,14.81-26.64v-10.14l2.66-1.41c6.36-3.37,12.18-6.55,17.8-9.73l7.46-4.22v26.47c0,1.76-.38,3.53-1.12,5.24-.63,1.43-1.44,2.84-2.42,4.23-.63.89-1.33,1.67-2.12,2.34v19.27h49.94v-19.42c-.92-.83-1.76-1.84-2.53-3.03-1.54-2.37-2.33-5.24-2.33-8.52v-21.75c0-1.64.21-3.08.66-4.41l.25-.62c1.57-3.21,5.03-3.21,8.7-3.21h2.8c2.71,0,5.07.75,7.03,2.23.74.57,1.56,1.31,2.53,2.29,2.16,2.2,3.67,4.59,4.5,7.15.76,2.32,1.15,4.87,1.15,7.55v41.73h45.29v-19.36c-.91-.83-1.76-1.84-2.53-3.02-1.55-2.39-2.33-5.25-2.33-8.51v-18.45c0-5.15-1.06-9.08-3.14-11.66-.77-.95-3.11-3.19-10.04-7.39-2.17-1.3-3.42-3.67-3.42-6.5,0-3.11,1.45-5.63,3.97-6.9,5.6-2.91,9.46-7.34,11.74-13.49,1.81-4.95,2.73-12.01,2.73-20.98,0-4.16-.73-8.22-2.16-12.07l-1.23-3.31,2.7-2.27c4.63-3.88,8.15-6.89,11.41-9.74l8.29-7.23v16.67c1.32,1.11,2.43,2.37,3.34,3.77,1.17,1.79,2,3.26,2.53,4.5.69,1.62,1.01,3.45,1.01,5.63v89.22c0,1.81-.31,3.55-.92,5.2l-.05.12c-.42,1.04-1.13,2.27-2.23,3.89-.68.99-1.43,1.85-2.27,2.58v19.3h113.94v-48.33h-37.59v6.44c0,2.58-.35,4.71-1.08,6.49-.62,1.51-1.55,3.15-2.84,5.03-1.61,2.32-3.59,4.03-5.88,5.08-2.17.99-4.11,1.47-5.93,1.47h-4.86c-2.83,0-5.96-.31-7.85-2.56-1.47-1.69-1.6-3.92-1.6-5.9v-23.03c0-1.7.13-3.18.4-4.53.26-1.32.6-2.36,1.04-3.22,1.16-3.09,3.8-4.98,7.03-4.98h25.56v-21.19h-25.38c-2.88,0-5.02-.74-6.56-2.25-1.84-1.85-2.09-4.46-2.09-7v-21.87c0-1.22.22-2.5.65-3.8l.21-.62.36-.55c1.74-2.65,4.83-2.86,8.39-2.86h3.8c1.93,0,3.91.38,5.89,1.13,2.32.9,4.17,2.28,5.54,4.12l.07.09c1.96,2.76,2.51,3.73,2.8,4.31.88,1.79,1.32,3.83,1.32,6.07v3.1h38.6v-42.65h-114.08l9.31-8.66c7.92-7.38,14.4-13.6,20.39-19.59,145.6-145.6,225.78-339.18,225.78-545.09,0-55.11-5.85-110.21-17.38-163.79l-.54-2.49,1.7-1.9c46.56-52.1,64.27-96.84,51.23-129.38-12.9-32.2-52.89-51.65-118.85-57.79l-2.7-.25-1.26-2.4c-6.51-12.38-13.28-24.48-20.12-35.94l-1.86-3.12,70.79-81.02c5.1-5.99,6.73-7.52,7.64-8.22,1.83-1.46,3.84-2.69,5.9-3.6l.5-.19,2.28-.73,11.79-41.02-70.4-20.23-10.75,37.4-24.48,33.55c-2.35,4.04-5.45,4.65-7.11,4.65-.69,0-1.38-.1-2.07-.3-3.92-1.12-6.24-4.44-6.12-8.72l-3.41-42.31,10.56-36.75-81.2-23.33-14,48.72-6-6c-13.52-13.52-27.71-26.71-42.18-39.2l-2.12-1.83,2.58-15.79-27.24-4.45-1.01-.8c-136.29-107.07-300.56-163.66-475.06-163.66s-339.56,56.87-476.04,164.45l-1.04.82-10.35,1.58-.23,6.91-1.74,1.44c-19.31,15.93-38.05,32.95-55.69,50.59-5.69,5.68-11.59,11.82-18.58,19.3l-6.3,6.75-10.71-43.59c-14.77-8.22-30.96-12.81-48.15-13.66-1.72-.08-3.52-.12-5.34-.12-13.12,0-28.34,2.1-45.21,6.25-27.34,6.72-48.08,17.5-61.65,32.04-16.32,17.36-21.06,38.76-14.5,65.45l28.26,114.95c4.32,17.58,11.1,32.04,20.15,42.97l1.97,2.38-1.24,2.82c-42.78,97.54-64.47,201.69-64.47,309.57,0,60.9,7.12,121.63,21.18,180.48l.7,2.95-2.29,1.99c-7.66,6.64-14.94,13.18-21.64,19.44-73.08,68.34-101.86,123.65-85.52,164.41,15.69,39.15,74.27,59.84,169.42,59.84,13.85,0,28.82-.47,44.49-1.38l2.84-.17,1.59,2.36c27.75,41.13,59.72,79.88,95.01,115.16,5.98,5.98,12.46,12.21,20.39,19.59l9.3,8.66h-42.46l-22.99,123.4-1.46,4.62-.24.44c-.6,1.08-1.34,2.05-2.21,2.88v20.68h45.29v-19.88c-.66-.36-1.33-.79-1.98-1.27-2.91-2.02-4.5-5.06-4.5-8.57v-2.25c0-2.63.89-5.1,2.64-7.34.77-1.03,1.53-1.76,2.37-2.26,1.61-1.05,3.13-1.56,4.65-1.56h16.81c1.51,0,3.04.52,4.93,1.69.48.26,1,.62,1.7,1.14l.52.39.4.51c1.8,2.26,2.71,4.75,2.71,7.38v2.24c0,2.94-1.17,5.67-3.37,7.9-.64.64-1.27,1.2-1.9,1.67v20.24h53.79v-20.43c-1.04-1.02-2-2.22-2.86-3.58-1.63-2.54-1.9-3.02-2.08-3.38-.62-1.25-1.05-2.59-1.26-4l-20.34-96.38,10.84,8.55c13.35,10.53,27.36,20.84,41.65,30.64l2.17,1.49v55.98c0,1.81-.31,3.55-.92,5.2l-.04.11c-.41,1.03-1.12,2.27-2.23,3.9-.68.99-1.44,1.86-2.27,2.59v19.3h73.38c7.74,0,14.47-.79,20.01-2.34,5.31-1.5,10.58-4.41,15.66-8.66,2.42-2,4.39-4.82,5.88-8.38l1.98-4.74,4.69,2.11c13.63,6.14,27.37,11.86,40.83,17l2.54.97.86,4.05Zm760.78-74.88c4.57,2.96,7.57,5.41,9.34,7.59,3.56,4.41,5.37,10.45,5.37,17.95v18.45c0,1.3.24,2.33.71,3.06.7,1.07,1.15,1.28,1.16,1.28l1.68.74,1.69-.74c.33-.15.68-.48,1.02-.98.85-1.24,1.13-1.8,1.19-1.94.18-.5.26-1.03.26-1.62v-89.22c0-1.15-.17-1.62-.21-1.7-.16-.37-.6-1.27-1.71-2.96-.61-.94-1.46-1.74-2.6-2.44l-2.37-1.47v-.12c-.23.19-.46.39-.69.58,1.12,3.94,1.68,8.01,1.68,12.16,0,10.28-1.09,18.27-3.34,24.43-2.67,7.22-7.1,12.9-13.19,16.95Zm83.26,41.06h4.32s.54,0,1.77-.57c.65-.3,1.24-.84,1.82-1.67,1.07-1.56,1.58-2.56,1.81-3.13.1-.25.34-1.01.34-2.7v-16.16h-9.81s-.02.1-.03.15c-.14.69-.21,1.56-.21,2.59v21.49Zm-945.92,9.8h-10.64c-2.34,0-4.37-1.04-5.57-2.84l-.14-.22c-.87-1.47-1.29-3.24-1.29-5.39v-28.58l7.5,4.32c8.17,4.71,15.01,8.53,21.51,12.01l2.67,1.43-.03,3.03c-.03,2.51-.22,4.59-.59,6.38-.57,2.77-1.99,5.11-4.12,6.78-2.63,2.06-5.76,3.1-9.3,3.1Zm-7.64-10h7.64c1.29,0,2.29-.31,3.14-.97.12-.09.35-.28.49-.93.09-.44.17-.94.23-1.5-3.64-1.97-7.42-4.07-11.5-6.37v9.77Zm-148.34-27.33c-3.98,0-6.39-1.75-7.71-3.21-2.19-2.43-3.09-5.77-2.68-9.92l.07-.46,10.58-54.27,13.62,54.5c.65,3.45-.1,6.75-2.17,9.58-1.61,2.53-4.59,3.13-5.61,3.33-1.58.32-3.02.43-4.35.33-.6.07-1.19.11-1.75.11Zm-.33-10.02c.21.03.7.02,1.22-.06l.76-.12.76.11c.11.01.55.07,1.55-.12.16-.36.19-.73.12-1.18l-2.6-10.41-1.93,9.88c-.09,1.12.05,1.68.13,1.91Zm955.89-10.69l15.03-10.49c1.63-1.14,3.26-2.28,4.88-3.44l15.44-10.96-8.01,17.15c-1.76,3.77-4.98,6.02-9.06,6.33l-18.27,1.4ZM221.45,390.16l-23.82-96.93c-1.46-5.95-.9-11.54,1.69-16.62,2.67-5.25,7.33-8.83,13.47-10.34,6.25-1.54,12.14-.74,17.23,2.33,5.13,3.11,8.49,7.77,9.98,13.85l5.43,22.09,45.6-11.21-9.37,11.56c-9.01,11.11-17.9,22.73-26.41,34.52l-1.08,1.49-12.43,3.06,2.67,10.85-1.25,1.84c-5.57,8.17-10.61,15.86-15.42,23.52l-6.27,9.98Zm-2.57-114.65c-1.17,0-2.41.16-3.7.48-3.37.83-5.58,2.47-6.95,5.16-1.49,2.92-1.78,6.09-.89,9.7l18.23,74.16c2.59-3.97,5.26-7.99,8.06-12.13l-3.99-16.23,18.58-4.57c5.39-7.43,10.92-14.78,16.53-21.98l-26.64,6.55-7.81-31.8c-.85-3.46-2.63-5.97-5.45-7.68-1.84-1.11-3.8-1.66-5.96-1.66Z"/><path class="cls-2" d="m881.32,1573.73c-90.95,0-179.93-15.31-264.48-45.51h-18.66l-1.61-7.58c-9.98-3.88-20.06-8.06-30.12-12.47-1.61,2.25-3.45,4.23-5.49,5.92-6.53,5.45-13.48,9.26-20.64,11.27-6.74,1.9-14.7,2.86-23.67,2.86h-233.6v-41.65l3.76-2.1.53-1.66,24.89-133.62h19.71c-1.81-1.77-3.56-3.5-5.27-5.21-34.76-34.76-66.35-72.81-93.93-113.16-14.21.75-27.8,1.13-40.45,1.14-102.57,0-163.79-22.99-181.96-68.32-18.61-46.45,11.28-106.77,88.84-179.29,5.69-5.32,11.77-10.82,18.14-16.4-13.51-58.31-20.37-118.38-20.37-178.61,0-108.03,21.39-212.42,63.58-310.34-8.72-11.88-15.31-26.71-19.6-44.17l-28.26-114.94c-7.62-31.05-1.65-57.25,17.76-77.9,15.37-16.46,38.35-28.55,68.27-35.91,20.48-5.03,38.77-7.22,54.41-6.51,20.11,1,38.98,6.55,56.13,16.52l3.12,1.81,6.17,25.12c2.82-2.92,5.51-5.65,8.15-8.3,17.06-17.06,35.1-33.53,53.68-49l.39-12.04,17.92-2.73C537.24,62.37,704.07,5,881.32,5s343.33,57.11,481.67,165.19l37.14,6.07-3.54,21.67c9.86,8.61,19.59,17.55,29.07,26.69l11.45-39.82,107.14,30.79-13.61,47.36,2.13,26.41,15.09-20.69,13.81-48.08,96.34,27.69-17.51,60.92-8.67,2.77c-.88.42-1.78,1-2.66,1.7-.09.08-1.28,1.16-5.74,6.4l-64.43,73.74c5.14,8.79,10.23,17.9,15.18,27.2,68.69,7.17,110.92,29.28,125.54,65.76,15,37.44-2.1,84.58-50.83,140.16,11.14,53.19,16.79,107.81,16.79,162.42,0,209.51-81.59,406.49-229.73,554.64-1.72,1.72-3.47,3.44-5.27,5.21h93.61v69.65h-33.62v34.04h33.62v75.32h-276.32v-25.02c-3.47,6.71-8.83,12.49-16.05,17.31-11.74,7.93-26.49,11.96-43.8,11.96-13.23,0-25.07-2.31-35.24-6.87-86.72,31.94-178.06,48.13-271.56,48.13Zm-269.37-62.5h7.85l1.39.5c83.12,29.87,170.63,45.01,260.12,45.01s183.19-16.26,269.02-48.32l3.54-1.32,3.35,1.74c8.47,4.41,18.87,6.64,30.89,6.64,13.86,0,25.41-3.05,34.33-9.08,9.07-6.04,13.27-13.58,13.27-23.74v-12.24l4.51-2.39c6.37-3.38,12.17-6.56,17.72-9.69l12.68-7.17v32.46c0,2.24-.48,4.48-1.41,6.63-.73,1.65-1.66,3.27-2.78,4.86-.46.65-.95,1.26-1.48,1.82v14.29h42.95v-14.48c-.7-.77-1.36-1.63-1.96-2.57-1.92-2.94-2.89-6.45-2.89-10.42v-21.75c0-1.99.28-3.85.83-5.52l.43-1.05c2.53-5.18,7.91-5.18,11.84-5.18h2.8c3.44,0,6.6,1.02,9.14,2.94.9.7,1.83,1.54,2.91,2.63,2.54,2.58,4.33,5.43,5.33,8.51.88,2.68,1.32,5.59,1.32,8.65v38.24h38.29v-14.42c-.7-.77-1.36-1.62-1.97-2.56-1.92-2.95-2.89-6.45-2.89-10.41v-18.45c0-4.33-.8-7.51-2.37-9.47-.27-.34-2.04-2.29-9.13-6.6-3.23-1.93-5.1-5.41-5.1-9.49,0-4.42,2.2-8.16,5.89-10.02,4.76-2.48,8.07-6.28,10.03-11.58,1.66-4.54,2.51-11.2,2.51-19.76,0-3.79-.64-7.34-1.94-10.85l-2.09-5.62,4.59-3.85c3.81-3.2,7.61-6.42,11.37-9.7l9.05-7.89,9.74-9.07c7.84-7.3,14.29-13.5,20.3-19.5,144.94-144.94,224.76-337.64,224.76-542.62,0-54.86-5.82-109.72-17.31-163.06l-.91-4.23,2.88-3.22c45.61-51.04,63.1-94.53,50.59-125.75-12.38-30.89-51.38-49.59-115.92-55.61l-4.59-.43-2.14-4.08c-6.48-12.33-13.22-24.37-20.03-35.78l-3.16-5.3,72.46-82.92c5.55-6.52,7.12-7.92,8.16-8.71,2.01-1.6,4.28-2.99,6.62-4.01l1.34-.48,10.31-35.87-63.68-18.3-9.95,34.64-24.74,33.92c-3.21,5.4-7.64,6.23-10.04,6.23-1.01,0-2.03-.14-3.02-.43-5.41-1.55-8.75-6.21-8.66-11.98l-3.45-42.76,9.77-34-74.48-21.4-14.68,51.06-10.19-10.19c-13.5-13.49-27.62-26.62-41.99-39.02l-3.6-3.11,2.33-14.27-24.68-4.03-1.72-1.35c-135.66-106.58-299.19-162.91-472.9-162.91s-338.02,56.61-473.88,163.7l-1.76,1.39-8.39,1.28-.18,5.59-2.96,2.44c-19.21,15.84-37.86,32.78-55.44,50.36-5.64,5.64-11.52,11.75-18.5,19.21l-10.71,11.47-11.89-48.37c-13.94-7.5-29.16-11.7-45.3-12.5-13.76-.63-30.66,1.4-49.54,6.03-26.66,6.56-46.82,17-59.93,31.03-15.45,16.43-19.91,36.78-13.66,62.22l28.26,114.94c4.19,17.07,10.74,31.05,19.45,41.57l3.34,4.04-2.1,4.8c-42.58,97.09-64.17,200.78-64.17,308.16,0,60.63,7.09,121.08,21.08,179.67l1.2,5.02-3.9,3.38c-7.62,6.6-14.86,13.11-21.54,19.35-71.92,67.25-100.41,121.27-84.66,160.55,15.11,37.71,72.57,57.64,166.18,57.64,13.75,0,28.65-.47,44.29-1.38l4.83-.28,2.71,4.01c27.62,40.94,59.44,79.51,94.58,114.65,5.98,5.98,12.43,12.18,20.3,19.5l15.81,14.72h-48.44l-22.65,121.25-1.48,4.67-.42.75c-.51.92-1.1,1.78-1.76,2.56v15.8h38.29v-14.43c-.18-.13-.35-.26-.53-.39-3.84-2.69-5.95-6.73-5.95-11.41v-2.25c0-3.41,1.19-6.73,3.46-9.59.54-.73,1.59-2.01,3.2-2.98,2.17-1.41,4.3-2.09,6.5-2.09h16.81c2.75,0,5.1,1.19,6.68,2.16.61.34,1.25.77,2.05,1.37l.88.66.68.86c2.27,2.86,3.47,6.16,3.47,9.56v2.24c0,3.89-1.52,7.47-4.39,10.36-.29.3-.58.57-.88.84v15.1h46.8v-15.55c-.83-.94-1.6-1.96-2.31-3.08-1.7-2.65-2.01-3.2-2.28-3.75-.75-1.5-1.28-3.15-1.56-4.88l-22.31-105.74,18.42,14.53c13.29,10.49,27.24,20.75,41.46,30.51l3.69,2.53v57.83c0,2.23-.39,4.38-1.14,6.42-.59,1.47-1.38,2.88-2.66,4.75-.52.76-1.08,1.45-1.67,2.09v14.34h69.88c7.41,0,13.83-.75,19.06-2.22,4.83-1.36,9.66-4.04,14.37-7.97,1.98-1.65,3.62-4.01,4.89-7.04l3.36-8.06,7.97,3.59c13.54,6.1,27.22,11.79,40.64,16.92l4.32,1.65.67,3.14Zm788.39,0h106.95v-41.33h-30.6v2.94c0,3.05-.44,5.6-1.35,7.81-.71,1.74-1.75,3.6-3.19,5.68-1.98,2.86-4.43,4.96-7.32,6.28-2.63,1.21-5.04,1.79-7.38,1.79h-4.86c-2.23,0-7.36,0-10.55-3.83-2.4-2.81-2.4-6.36-2.4-8.12v-23.03c0-1.93.15-3.64.46-5.22.31-1.56.72-2.85,1.27-3.97,1.72-4.32,5.62-7.06,10.22-7.06h22.07v-14.19h-21.89c-3.81,0-6.85-1.1-9.04-3.29-2.74-2.76-3.1-6.33-3.1-9.47v-21.87c0-1.58.28-3.23.83-4.9l.35-1.06.62-.94c2.92-4.44,8.17-4.44,11.31-4.44h3.8c2.36,0,4.76.46,7.14,1.37,2.95,1.15,5.32,2.92,7.09,5.29,2.09,2.95,2.77,4.08,3.19,4.92,1.08,2.19,1.64,4.62,1.69,7.25h31.62v-35.66h-108.37v12.77c1.05,1.04,1.98,2.17,2.77,3.39,1.29,1.96,2.21,3.62,2.82,5.04.88,2.06,1.3,4.34,1.3,7.01v89.22c0,2.22-.38,4.38-1.14,6.42-.59,1.48-1.39,2.89-2.66,4.76-.52.75-1.07,1.45-1.66,2.08v14.34Zm-985.46-91.11l12.88,61.15c.07.14.58.94,1.38,2.17.62.98,1.11,1.4,1.35,1.57l1.67,1.16,2.29-1.01c.35-.5.61-.89.78-1.21.02-.08.03-.18.03-.32v-48.89c-6.88-4.77-13.68-9.66-20.38-14.63Zm905.48,65.04l.31.14v-12.31c0-1.26-.16-2.38-.48-3.35-.04-.12-.09-.24-.15-.36v14.47c0,.72.11,1.09.15,1.17.06.09.11.17.16.23Zm-67.65-4.53v2.03c0,.84-.02,1.67-.06,2.49l.04-.02c.41-.6.73-1.16.96-1.69v-3.32c-.31.17-.63.34-.94.51Zm123.12-40.93c2.73,2.02,4.73,3.83,6.12,5.54,4.08,5.06,6.15,11.83,6.15,20.15v18.45c0,.56.06.88.11,1.04.25-.37.45-.67.59-.92.01-.08.03-.18.03-.32v-69.32c-.58,3.64-1.4,6.89-2.46,9.78-2.32,6.27-5.84,11.49-10.53,15.6Zm80.81,37.71h.51c.12-.03.32-.11.62-.25.01-.01.18-.16.4-.48.96-1.4,1.33-2.18,1.44-2.46h0s.09-.44.09-1.39v-12.66h-3.06v17.23Zm0-65.42h2.04v-9.73c0-.08,0-.14,0-.2-.28-.44-.71-1.06-1.28-1.87-.29-.1-.55-.16-.76-.16v11.96Zm-949.41,82.21h-10.64c-3.54,0-6.64-1.61-8.5-4.42l-.21-.33c-1.19-2.01-1.8-4.42-1.8-7.2v-34.64l12.74,7.35c8.13,4.69,14.93,8.49,21.41,11.95l4.54,2.43-.05,5.15c-.03,2.74-.25,5.05-.66,7.06-.73,3.57-2.59,6.63-5.38,8.81-3.23,2.52-7.19,3.84-11.46,3.84Zm-155.98-37.33c-5.27,0-8.51-2.38-10.31-4.37-1.98-2.19-4.2-6.16-3.56-12.61l.12-.78,13.59-69.7,17.48,69.97c.82,4.38-.11,8.57-2.7,12.17-1.59,2.48-4.22,4.09-7.84,4.82-1.78.35-3.44.5-4.95.41-.62.06-1.24.09-1.83.09Zm943.09-19.74l25.49-17.82c1.62-1.13,3.24-2.28,4.86-3.42l26.22-18.63-13.6,29.15c-2.28,4.89-6.64,7.93-11.96,8.34l-31.01,2.38Zm29.71-19.33c-.85.07-1.86.83-2.14,1.42l2.33,1.08-.19-2.51ZM220.02,399l-25.79-104.93c-1.67-6.79-1.01-13.2,1.97-19.04,3.14-6.19,8.59-10.39,15.75-12.15,7.16-1.77,13.98-.82,19.87,2.73,5.88,3.57,9.87,9.1,11.57,16.01l4.59,18.7,52.31-12.85-15.93,19.64c-8.96,11.04-17.8,22.61-26.3,34.37l-1.83,2.53-10.28,2.53,2.2,8.97-2.13,3.13c-5.55,8.15-10.57,15.81-15.35,23.41l-10.66,16.96Zm-1.14-120c-.88,0-1.85.12-2.86.38-2.98.73-4.03,2.1-4.67,3.35-1.11,2.18-1.3,4.48-.62,7.28l16.32,66.38c.92-1.38,1.86-2.78,2.81-4.19l-4.45-18.13,20.73-5.09c3.21-4.41,6.46-8.78,9.75-13.11l-20.34,5-8.65-35.2c-.64-2.59-1.83-4.29-3.87-5.53-1.29-.78-2.61-1.14-4.15-1.14Z"/><path class="cls-1" d="m881.32,1578.73c-91.23,0-180.49-15.31-265.34-45.51h-21.85l-1.89-8.9c-8.01-3.15-16.15-6.52-24.28-10.04-1.18,1.32-2.45,2.54-3.79,3.66-7.08,5.91-14.65,10.03-22.48,12.24-7.17,2.02-15.59,3.04-25.02,3.04h-238.6v-49.58l4.52-2.52,25.51-136.91h11.75c-33.01-33.4-63.14-69.79-89.63-108.24-13.25.66-25.99,1-37.91,1-104.82,0-167.6-24.04-186.6-71.46-19.45-48.55,10.85-110.73,90.06-184.8,5.02-4.69,10.39-9.57,16.01-14.53-13.16-57.76-19.83-117.24-19.83-176.82,0-107.75,21.15-211.93,62.88-309.72-8.28-11.99-14.59-26.64-18.75-43.59l-28.26-114.94c-8.06-32.8-1.67-60.56,18.97-82.52,16.05-17.18,39.84-29.75,70.72-37.34,20.92-5.14,39.76-7.38,55.83-6.65,20.92,1.04,40.57,6.82,58.41,17.19l4.96,2.88,4.54,18.45c.63-.64,1.26-1.27,1.9-1.91,16.63-16.63,34.21-32.72,52.3-47.87l.45-13.96,20.73-3.16C535.85,57.48,703.42,0,881.32,0s344.72,57.22,483.74,165.46l40.81,6.67-3.9,23.87c7.12,6.27,14.21,12.73,21.17,19.3l10.55-36.69,116.75,33.55-14.74,51.29.97,12.08,6.62-9.08,14.95-52.04,105.95,30.45-19.63,68.3-10.84,3.47c-.42.22-.86.51-1.3.85-.26.26-1.59,1.62-5.2,5.85l-62.11,71.08c4.1,7.09,8.2,14.44,12.22,21.92,69.12,7.67,111.85,30.74,127.01,68.59,15.58,38.89-1.26,87.13-50.07,143.43,10.88,52.74,16.39,106.9,16.39,161.01,0,209.29-80.89,406.14-227.89,554.85h86.5v79.65h-33.62v24.04h33.62v85.32h-286.32v-15.17c-2.46,2.38-5.23,4.59-8.28,6.62-12.57,8.49-28.25,12.8-46.57,12.8-13.12,0-25.02-2.18-35.39-6.49-86.71,31.68-178.01,47.75-271.41,47.75Zm-279.08-55.51h15.47l.82.29c84.01,30.01,172.42,45.22,262.79,45.22s183.67-16.09,269.83-47.82l1.91-.7,1.86.83c9.52,4.27,20.69,6.43,33.2,6.43,16.29,0,30.09-3.74,41-11.11,6.5-4.33,11.34-9.53,14.41-15.46l3.93-7.59-.16.08.37-8.49c.04-.74.05-1.49.05-2.25v-5.01l10.93-5.93v12.78s-.41.96-.41.96c-.36.81-.83,1.65-1.42,2.5l-.73,1.07-3.11,1.54v32.65h266.32v-65.32h-33.62v-44.04h33.62v-59.65h-100.85l8.74-8.57c1.79-1.76,3.53-3.47,5.24-5.18,147.2-147.2,228.27-342.92,228.27-551.1,0-54.26-5.61-108.56-16.68-161.4l-.51-2.44,1.65-1.88c47.38-54.04,64.19-99.46,49.95-135-13.87-34.61-54.72-55.69-121.41-62.64l-2.64-.28-1.25-2.35c-4.94-9.27-10.02-18.36-15.09-27.02l-1.82-3.11,66.79-76.45c4.3-5.05,5.77-6.48,6.2-6.86l.19-.16c1.17-.94,2.39-1.71,3.62-2.3l.64-.25,6.12-1.96,15.39-53.55-86.73-24.93-12.68,44.13-23.55,32.29-3.29-40.75,12.48-43.43-97.53-28.03-12.36,43-5.98-5.77c-9.4-9.07-19.12-18-28.89-26.53l-2.09-1.83,3.18-19.48-33.47-5.47-1.01-.79C1222.47,66.76,1056.98,10,881.32,10s-341.91,57.02-479.55,164.89l-1.03.81-15.11,2.31-.33,10.13-1.72,1.44c-18.46,15.37-36.41,31.76-53.35,48.69-2.73,2.73-5.37,5.42-8.09,8.24l-6.29,6.51-7.83-31.85-1.29-.75c-16.45-9.56-34.57-14.89-53.86-15.85-1.82-.08-3.73-.13-5.66-.13-13.85,0-29.77,2.19-47.31,6.5-28.96,7.12-51.1,18.72-65.81,34.47-18.19,19.35-23.76,44-16.56,73.3l28.26,114.94c4.13,16.8,10.45,31.07,18.78,42.41l1.69,2.31-1.13,2.63c-41.92,97.28-63.17,201.03-63.17,308.36,0,59.83,6.81,119.54,20.24,177.48l.68,2.91-2.25,1.97c-6.36,5.58-12.42,11.06-18.02,16.29-75.9,70.97-105.37,129.44-87.61,173.78,17.33,43.25,76.99,65.18,177.31,65.18,12.58,0,26.1-.38,40.19-1.13l2.81-.15,1.59,2.32c27.4,40.08,58.81,77.91,93.34,112.45,1.7,1.7,3.44,3.42,5.23,5.17l8.77,8.58h-27.82l-24.19,129.83-1.22,3.84-2.93,1.63v33.71h228.6c8.52,0,16.02-.9,22.31-2.67,6.46-1.82,12.78-5.28,18.79-10.29,1.72-1.43,3.27-3.11,4.63-5l2.36-3.29,3.71,1.63c10.02,4.39,20.08,8.56,29.92,12.39l2.52.98,1.33,6.25Zm279.08,38.52c-90.07,0-178.16-15.24-261.82-45.31l-.57-.21h-11.03l-.94-4.44-1.77-.68c-13.51-5.17-27.27-10.9-40.91-17.04l-3.28-1.48-1.38,3.32c-1.58,3.78-3.7,6.8-6.31,8.96-5.25,4.38-10.71,7.39-16.21,8.94-5.68,1.6-12.55,2.41-20.42,2.41h-74.88v-21.3l1.34-1.44c.43-.47.84-.98,1.21-1.52,1.06-1.55,1.67-2.64,2.11-3.72.54-1.47.81-3.02.81-4.62v-55.19l-1.52-1.04c-14.34-9.83-28.38-20.16-41.73-30.71l-7.58-5.98,19.51,92.47c.2,1.23.57,2.38,1.09,3.44.17.34.42.78,2.02,3.29.57.89,1.2,1.72,1.85,2.47l1.25,1.42v22.43h-56.8v-22.32l1.65-1.49c.22-.2.44-.41.66-.63,1.97-1.98,2.96-4.28,2.96-6.86v-2.24c0-2.26-.82-4.49-2.38-6.45l-.28-.36-.36-.27c-.6-.45-1.09-.77-1.51-1.01l-.16-.09c-1-.61-2.51-1.42-4.08-1.42h-16.81c-1.23,0-2.43.41-3.77,1.28l-.14.09c-.64.38-1.23.94-1.76,1.66l-.1.13c-1.56,1.97-2.38,4.21-2.38,6.49v2.25c0,3.03,1.32,5.56,3.82,7.31l2.66,1.9v22.01h-48.29v-22.63l1.18-1.4c.46-.54.87-1.14,1.21-1.76l.18-.32,1.23-3.89,23.36-125.03h25.38l2.23-11.46c-5.42-5.12-10.18-9.74-14.66-14.22-35.36-35.36-67.39-74.18-95.19-115.38l-1.11-1.65-1.99.12c-15.71.92-30.71,1.38-44.58,1.39-95.82,0-154.89-21.02-170.82-60.78-16.59-41.39,12.31-97.27,85.89-166.06,6.74-6.3,14.04-12.86,21.68-19.48l1.6-1.39-.49-2.06c-14.08-58.97-21.22-119.82-21.22-180.84,0-108.08,21.73-212.44,64.59-310.17l.87-1.97-1.38-1.66c-9.2-11.1-16.08-25.76-20.45-43.57l-28.26-114.94c-6.69-27.22-1.82-49.08,14.87-66.84,13.77-14.75,34.76-25.67,62.38-32.46,17-4.17,32.38-6.29,45.72-6.29,1.78,0,3.55.04,5.25.12,16.89.84,32.85,5.24,47.44,13.09l1.96,1.05,10.21,41.56,4.41-4.72c7-7.48,12.91-13.63,18.62-19.34,17.67-17.67,36.44-34.72,55.79-50.68l1.22-1,.24-7.48,11.19-1.71.73-.57C541.1,73.97,706.04,16.99,881.32,16.99s339.43,56.7,475.99,163.98l.71.56,28.34,4.63-2.69,16.44,1.48,1.28c14.44,12.46,28.65,25.67,42.25,39.27l4.19,4.19,13.72-47.71,84.09,24.16-10.9,37.93,3.39,42.09v.24c-.05,3.53,1.83,6.19,5.04,7.11.54.16,1.1.24,1.64.24,2.32,0,4.25-1.27,5.74-3.79l.26-.39,24.21-33.2,11.09-38.59,73.29,21.06-12.4,43.13-3.58,1.28c-1.85.83-3.7,1.96-5.36,3.28l-.08.07c-.79.6-2.35,2.06-7.38,7.97l-70.11,80.24,1.3,2.18c6.83,11.45,13.62,23.57,20.16,36.01l.88,1.68,1.89.18c66.56,6.2,106.97,25.96,120.1,58.73,13.27,33.11-4.54,78.39-51.5,130.94l-1.19,1.33.38,1.74c11.56,53.68,17.42,108.9,17.42,164.11,0,206.31-80.34,400.27-226.22,546.15-5.97,5.97-12.46,12.21-20.42,19.63l-6.51,6.06h111.76v45.66h-41.52l-.09-4.9c-.04-1.92-.42-3.6-1.18-5.13-.25-.5-.77-1.39-2.75-4.19-1.21-1.61-2.8-2.78-4.86-3.58-1.78-.68-3.58-1.03-5.33-1.03h-3.8c-3.12,0-5.8.16-7.13,2.18l-.26.39-.15.45c-.38,1.14-.57,2.27-.57,3.32v21.87c0,3.08.46,4.75,1.65,5.94,1.21,1.21,3.02,1.81,5.49,1.81h26.89v24.19h-27.07c-2.52,0-4.61,1.46-5.58,3.9l-.15.35c-.36.73-.64,1.62-.86,2.74-.25,1.25-.37,2.64-.37,4.25v23.03c0,1.29,0,3.46,1.21,4.88,1.73,2.08,4.99,2.08,6.75,2.08h4.86c1.61,0,3.34-.44,5.29-1.33,2.06-.94,3.84-2.48,5.29-4.58,1.22-1.78,2.1-3.33,2.67-4.73.66-1.6.98-3.53.98-5.92v-7.94h40.6v51.33h-116.95v-21.3l1.33-1.44c.42-.46.83-.97,1.21-1.52,1.05-1.54,1.67-2.63,2.11-3.72.54-1.46.81-3.02.81-4.62v-89.22c0-1.98-.29-3.63-.9-5.05-.49-1.14-1.3-2.57-2.4-4.26-.59-.92-1.3-1.78-2.1-2.57l-1.48-1.47v-13.91l-5.79,5.05c-3.43,2.99-7.17,6.18-11.44,9.76l-1.89,1.58.86,2.31c1.52,4.08,2.26,8.2,2.26,12.59,0,9.15-.95,16.37-2.82,21.48-2.38,6.44-6.56,11.25-12.42,14.3-2.05,1.04-3.2,3.06-3.2,5.58,0,2.33.95,4.17,2.67,5.2,6.81,4.13,9.44,6.49,10.46,7.75,2.34,2.91,3.48,7.03,3.48,12.61v18.45c0,2.97.7,5.56,2.08,7.68.46.71.96,1.36,1.47,1.92l1.31,1.43v21.36h-48.29v-43.24c0-2.53-.36-4.91-1.08-7.09-.77-2.33-2.16-4.54-4.15-6.56-.93-.94-1.69-1.63-2.39-2.17-1.64-1.24-3.75-1.91-6.09-1.91h-.29l5.85,11.8c.16.31.29.64.4.97.5,1.53.74,3.18.74,4.96v20l-8.46-3.77-.76-.96c-.12-.16-.28-.37-.45-.63l-.24-.41c-.47-.91-.71-2.08-.71-3.47v-28.49c-3.52.06-5.25.48-6.18,2.24l-.28.7c-.35,1.12-.53,2.4-.53,3.8v21.75c0,2.99.7,5.57,2.08,7.69.46.71.96,1.36,1.48,1.94l1.3,1.43v21.41h-52.95v-21.28l1.37-1.45c.36-.38.7-.8,1.02-1.26.93-1.31,1.7-2.66,2.29-4,.65-1.49.98-3.05.98-4.61v-23.89l-5.22,2.95c-5.68,3.21-11.51,6.39-17.84,9.75l-1.86.98v9.23c0,11.83-5.07,20.96-15.5,27.91-9.74,6.57-22.23,9.92-37.1,9.92-12.84,0-24.01-2.42-33.2-7.2l-1.38-.71-1.46.54c-86.38,32.27-177.48,48.63-270.76,48.63Zm-265.32-55.51h4.67l2.21.79c82.57,29.67,169.52,44.72,258.44,44.72s182-16.15,267.27-48l5.62-2.09,5.32,2.75c7.76,4.04,17.38,6.08,28.59,6.08,12.84,0,23.45-2.76,31.53-8.22,7.66-5.11,11.07-11.15,11.07-19.6v-15.25l7.18-3.8c6.24-3.31,12-6.46,17.6-9.62l20.14-11.39v41.03c0,2.93-.61,5.83-1.82,8.62-.88,1.99-1.98,3.91-3.28,5.75-.18.26-.37.52-.56.77v7.46h32.95v-7.68c-.4-.53-.79-1.08-1.16-1.64-2.45-3.76-3.7-8.19-3.7-13.15v-21.75c0-2.53.37-4.91,1.08-7.09l.12-.32.57-1.36c3.9-7.99,11.99-7.99,16.33-7.99h2.8c4.54,0,8.74,1.37,12.16,3.96,1.09.84,2.18,1.82,3.44,3.09,3.09,3.14,5.28,6.65,6.53,10.46,1.05,3.19,1.57,6.62,1.57,10.21v33.24h28.29v-7.62c-.4-.52-.79-1.07-1.16-1.64-2.46-3.78-3.7-8.2-3.7-13.14v-18.45c0-4.24-.89-5.83-1.23-6.28-.24-.25-1.95-1.92-7.87-5.51-4.69-2.81-7.51-7.96-7.51-13.77,0-6.34,3.23-11.75,8.63-14.48,3.63-1.89,6.07-4.72,7.6-8.86,1-2.74,2.2-8.1,2.2-18.03,0-3.18-.53-6.16-1.63-9.1l-3.33-8.93,7.3-6.12c4.22-3.54,7.92-6.69,11.29-9.63l8.99-7.84,9.68-9.01c7.88-7.33,14.28-13.49,20.17-19.38,144-144,223.3-335.45,223.3-539.08,0-54.5-5.79-109.01-17.2-162l-1.44-6.72,4.58-5.12c44.26-49.53,61.43-91.22,49.68-120.56-11.62-29-49.22-46.66-111.74-52.49l-7.29-.68-3.41-6.48c-6.46-12.28-13.15-24.24-19.9-35.54l-5.02-8.42,74.85-85.66c5.78-6.79,7.5-8.33,8.85-9.36,2.13-1.69,4.5-3.17,6.91-4.3l8.25-28.7-54.06-15.54-8.81,30.68-25.13,34.45c-3.29,5.38-8.45,8.46-14.21,8.46-1.48,0-2.96-.21-4.4-.62-7.5-2.15-12.3-8.65-12.29-16.61l-3.5-43.45,8.64-30.07-64.87-18.64-15.64,54.4-16.19-16.19c-13.43-13.42-27.47-26.47-41.72-38.77l-5.72-4.94,1.98-12.09-21.02-3.43-2.73-2.15c-134.77-105.87-297.23-161.84-469.8-161.84s-335.81,56.23-470.79,162.62l-2.8,2.21-5.59.86-.12,3.69-4.71,3.88c-19.11,15.76-37.64,32.59-55.08,50.04-5.62,5.63-11.46,11.69-18.38,19.09l-17.02,18.21-.05-.2-18.54,22.87c-8.87,10.93-17.66,22.42-26.13,34.14l-2.9,4.02-7.21,1.77,1.54,6.28-3.39,4.97c-5.51,8.08-10.49,15.69-15.25,23.26l-16.94,26.94-28.61-116.38c-1.97-7.99-1.17-15.56,2.38-22.51,3.82-7.52,10.4-12.62,19.02-14.73,2.71-.67,5.44-1.01,8.1-1.01,5.56,0,10.8,1.45,15.54,4.31,7.04,4.27,11.82,10.88,13.85,19.1l3.4,13.84,53.6-13.17-11.96-48.66c-12.74-6.5-26.6-10.16-41.23-10.89-1.53-.07-3.14-.11-4.77-.11-12.54,0-27.12,2.02-43.33,6-25.69,6.32-45.03,16.27-57.46,29.59-14.2,15.11-18.27,33.95-12.46,57.62l28.26,114.94c4.01,16.33,10.21,29.64,18.44,39.58l5.31,6.41-3.34,7.62c-42.3,96.46-63.75,199.46-63.75,306.15,0,60.24,7.05,120.3,20.95,178.51l1.9,7.97-6.19,5.37c-7.55,6.54-14.75,13.01-21.4,19.23-70.26,65.7-98.34,117.86-83.44,155.04,6.96,17.36,24,30.86,50.65,40.1,27.55,9.56,64.86,14.4,110.89,14.4,13.68,0,28.48-.46,44-1.37l7.67-.45,4.3,6.37c27.44,40.67,59.06,79,93.97,113.91,5.92,5.92,12.33,12.08,20.17,19.38l23.35,21.74,24.43,19.27c13.18,10.4,27.04,20.6,41.19,30.31l5.86,4.02v60.46c0,2.81-.49,5.56-1.46,8.16l-.04.11c-.72,1.79-1.66,3.5-3.17,5.71-.26.38-.53.74-.8,1.1v7.51h64.88c6.95,0,12.91-.68,17.71-2.03,4.14-1.16,8.35-3.52,12.52-7,1.36-1.13,2.53-2.85,3.48-5.13l5.34-12.81,12.65,5.7c13.46,6.06,27.05,11.72,40.37,16.81l6.86,2.62.39,1.84Zm789.35,0h96.95v-31.33h-20.66c-.17,2.85-.72,5.37-1.66,7.65-.84,2.06-2.05,4.23-3.69,6.61-2.49,3.61-5.64,6.3-9.36,8-3.28,1.51-6.38,2.24-9.46,2.24h-4.86c-2.65,0-9.7,0-14.39-5.64-3.56-4.17-3.56-9.18-3.56-11.32v-23.03c0-2.28.18-4.3.56-6.2.38-1.9.9-3.54,1.6-5.01,2.54-6.19,8.19-10.03,14.8-10.03h17.07v-4.19h-16.89c-5.11,0-9.46-1.64-12.57-4.75-4.05-4.08-4.57-9.09-4.57-13v-21.87c0-2.11.36-4.28,1.08-6.46l.57-1.7.98-1.49c4.41-6.69,11.89-6.69,15.49-6.69h3.8c2.97,0,5.97.57,8.93,1.7,3.85,1.5,6.97,3.84,9.31,6.97l.07.1c2.28,3.22,3.04,4.49,3.59,5.59.7,1.42,1.24,2.92,1.61,4.47h22.23v-25.66h-98.37v5.81c.72.84,1.38,1.72,1.96,2.63,1.43,2.18,2.49,4.08,3.22,5.79,1.15,2.69,1.7,5.62,1.7,8.98v89.22c0,2.82-.49,5.56-1.46,8.16l-.04.11c-.72,1.8-1.67,3.51-3.18,5.72-.26.37-.52.74-.79,1.09v7.51Zm-1030.01,0h36.8v-8.76c-.53-.69-1.04-1.42-1.52-2.17-1.74-2.71-2.16-3.43-2.55-4.23-.95-1.9-1.62-3.99-1.99-6.17l-23.99-113.7h-25.39l16.8,67.25c1.07,5.7-.14,11.2-3.48,15.91-1.64,2.5-4.87,5.68-10.99,6.9-2.07.41-4.02.58-5.81.52-.65.06-1.3.08-1.95.08-7.1,0-11.55-3.27-14.02-6.02-2.65-2.94-5.65-8.18-4.82-16.45l.18-1.24,13.05-66.95h-15.12l-21.94,117.46-1.72,5.44-.66,1.19c-.34.62-.72,1.23-1.13,1.82v9.12h28.29v-6.97c-4.19-3.6-6.48-8.6-6.48-14.26v-2.25c0-4.53,1.55-8.89,4.48-12.63,1.28-1.72,2.8-3.13,4.51-4.18,2.94-1.9,6.02-2.86,9.16-2.86h16.81c3.04,0,6.06.93,9.22,2.84.78.44,1.58.98,2.51,1.67l1.41,1.05,1.09,1.37c2.98,3.75,4.55,8.13,4.55,12.67v2.24c0,4.97-1.82,9.54-5.27,13.29v8.02Zm-32.98-65.73c-.43,4.56,1.01,7.22,2.31,8.65,1.63,1.81,3.84,2.72,6.59,2.72.44,0,.88-.02,1.32-.07l.4-.04.4.02c1.09.06,2.31-.05,3.69-.32,2.25-.45,3.76-1.31,4.61-2.62l.15-.21c1.77-2.45,2.4-5.21,1.87-8.2l-11.99-47.99-9.26,47.51-.08.54Zm11.84-79.3h7.91l-6.51-6.06c-1.31-1.22-2.57-2.4-3.81-3.56l2.4,9.62ZM218.86,267.02c-1.85,0-3.77.24-5.71.72-5.71,1.4-10.03,4.7-12.49,9.56-2.42,4.75-2.95,9.99-1.58,15.59l22.98,93.49,4.39-6.98c4.82-7.67,9.88-15.38,15.45-23.56l.88-1.29-2.86-11.66,13.35-3.28.75-1.04c8.58-11.88,17.48-23.52,26.47-34.59l6.56-8.08-42.72,10.5-5.79-23.55c-1.38-5.6-4.6-10.07-9.31-12.93-3.16-1.9-6.65-2.87-10.37-2.87Zm288.38,1232.18h-10.64c-5.25,0-9.87-2.43-12.67-6.67l-.33-.53c-1.66-2.79-2.5-6.07-2.5-9.75v-43.3l20.24,11.68c8.2,4.73,14.96,8.5,21.27,11.87l7.22,3.86-.09,8.18c-.03,3.07-.28,5.7-.77,8.02-.98,4.74-3.46,8.8-7.19,11.73-4.12,3.21-9.15,4.91-14.55,4.91Zm-14.94-12.14c.93,1.38,2.46,2.14,4.3,2.14h10.64c3.15,0,6.05-.96,8.39-2.79,1.83-1.43,3.06-3.47,3.56-5.88.35-1.7.54-3.69.56-6.1l.02-2.12-1.87-1c-6.4-3.42-13.25-7.24-21.55-12.02l-5.25-3.03v25.98c0,1.84.36,3.39,1.07,4.6l.13.21Zm894.13,9.35l-3.01-10.11c-.21-.71-.32-1.54-.32-2.47v-18.45c0-7.14-1.7-12.86-5.04-17.01-1.11-1.37-2.86-2.94-5.19-4.66l-5-3.68,4.67-4.1c4.04-3.55,7.12-8.12,9.14-13.58.93-2.54,1.68-5.52,2.21-8.83l9.94.79v69.32c0,.42-.03.81-.1,1.2l-.14.8-.39.72c-.25.46-.55.91-.83,1.33l-5.92,8.73Zm-3.2-57.1c.2.19.4.38.59.57v-1.28c-.19.24-.39.47-.59.71Zm-951.61,52.57l-3.98-2.77c-1-.72-1.9-1.71-2.71-2.99-1.33-2.06-1.44-2.27-1.59-2.54l-.32-.61-15.75-74.73,10.59,7.85c6.69,4.96,13.5,9.85,20.25,14.54l2.15,1.49v51.5c0,.44-.04.85-.12,1.27l-.15.77-.38.69c-.25.46-.57.96-1.06,1.66l-.8,1.15-6.14,2.72Zm-9.15-60.05l7.8,37.01v-31.49c-2.6-1.82-5.2-3.66-7.8-5.52Zm1035.39,50.57h-6.21v-27.23h13.06v17.66c0,.59-.03,1.06-.06,1.4l.08.73-.49,1.17c-.38.91-1.05,2.07-1.94,3.37-.37.53-.74.96-1.13,1.32l-.6.55-.74.33c-.54.24-.93.39-1.3.5l-.67.19Zm-181.38-38.89l40.5-28.3c1.62-1.13,3.22-2.26,4.83-3.4l41.65-29.6-21.6,46.3c-3.03,6.48-9.05,10.67-16.12,11.21l-49.26,3.79Zm44.77-19.09l-9.04,6.31,12.76-.98c1.69-.13,3.21-.64,4.5-1.51l-8.23-3.83Zm7.9-5.57l.7,9.13c1.22-.91,2.22-2.16,2.94-3.7l5.59-12-9.23,6.56Zm-4.74,3.36l.04.57c.85-.07,1.49-.34,2.01-1.46l-.47-.22c-.53.37-1.05.74-1.58,1.11Zm139.28-5.23h-12.04v-22.12l5.16.17c.7.02,1.41.16,2.19.42l1.55.52.94,1.34c.62.88,1.09,1.57,1.39,2.04l.72,1.12.07,1.32c0,.13.01.28.01.47v14.73ZM224.91,368.63l-19.03-77.43c-.98-3.97-.64-7.49,1.02-10.74,1.56-3.07,4.15-5.01,7.94-5.94,1.38-.34,2.75-.52,4.05-.52,2.44,0,4.64.61,6.72,1.86,3.19,1.94,5.2,4.75,6.15,8.62l7.46,30.35,29.21-7.18-8.55,11.25c-3.26,4.29-6.52,8.67-9.69,13.03l-1.08,1.48-17.65,4.34,3.79,15.43-1.24,1.84c-.94,1.39-1.87,2.78-2.79,4.16l-6.3,9.47Zm-6.03-84.63c-.48,0-1.05.08-1.66.23-1.18.29-1.3.53-1.42.76-.41.8-.71,1.81-.22,3.82l9.86,40.11,17.73-4.36c.12-.17.25-.34.37-.5l-11.66,2.87-9.84-40.06c-.36-1.46-.84-1.98-1.61-2.45-.5-.3-.93-.42-1.55-.42Z"/><path class="cls-1" d="m113.43,789.36C113.43,365.27,457.23,21.47,881.32,21.47s767.89,343.8,767.89,767.89-343.8,767.9-767.89,767.9S113.43,1213.46,113.43,789.36Z"/><path class="cls-2" d="m881.32,1565.23c-207.24,0-402.08-80.7-548.62-227.25-146.54-146.54-227.25-341.38-227.25-548.63s80.71-402.07,227.25-548.62C479.24,94.2,674.08,13.5,881.32,13.5s402.08,80.7,548.62,227.25c146.54,146.54,227.25,341.38,227.25,548.62s-80.7,402.08-227.25,548.63c-146.54,146.54-341.38,227.25-548.62,227.25Zm0-1535.78C462.31,29.45,121.41,370.35,121.41,789.36s340.9,759.92,759.91,759.92,759.91-340.9,759.91-759.92S1300.34,29.45,881.32,29.45Z"/><circle class="cls-2" cx="881.32" cy="789.36" r="602.5" transform="translate(-300.03 854.39) rotate(-45)"/><path class="cls-1" d="m881.32,1399.84c-336.62,0-610.48-273.86-610.48-610.48S544.7,178.89,881.32,178.89s610.48,273.86,610.48,610.47-273.86,610.48-610.48,610.48Zm0-1205c-327.82,0-594.52,266.7-594.52,594.51s266.7,594.53,594.52,594.53,594.52-266.71,594.52-594.53S1209.14,194.84,881.32,194.84Z"/><path class="cls-2" d="m318.05,475.16c12.21-7.1,22.91-17.31,31.85-30.4l-28.69-116.73-75.25,18.5,8.86,36.05c3.2-.67,9.21-1.37,13.65,2.68l.78.81c1.43,1.7,2.13,3.57,3.59,9.49l6.37,25.92c1.7,6.92.73,13.67-2.82,19.54-3.55,5.86-9.08,9.86-16,11.56-7.13,1.75-13.78.96-19.76-2.38-6.08-3.39-10.19-8.79-11.86-15.6l-34.54-140.53c-1.67-6.79-1.01-13.2,1.97-19.04,3.14-6.19,8.59-10.39,15.75-12.15,7.13-1.76,14-.81,19.87,2.73,5.87,3.57,9.87,9.1,11.57,16.01h0s4.6,18.7,4.6,18.7l63.31-15.56-13.69-55.7c-13.94-7.5-29.16-11.7-45.3-12.5-1.67-.08-3.39-.12-5.14-.12-12.87,0-27.78,2.06-44.4,6.15-26.66,6.56-46.82,17-59.93,31.03-15.45,16.43-19.91,36.78-13.66,62.22l28.25,114.94c6.76,27.52,19.59,46.81,38.12,57.34,18.69,10.62,43.47,12.24,73.66,4.82,21.16-5.21,37.59-11.19,48.83-17.79Z"/><path class="cls-2" d="m500.57,366.9c.88.32,1.88.79,3.22,1.5l.97.52.81.75c3.64,3.38,5.84,7.36,6.52,11.85l.59,3.83c.76,5-.51,9.95-3.69,14.3-.94,1.28-1.88,2.41-2.85,3.38l5.34,34.96,92.58-14.13-5.38-35.28c-2.06-1.48-4.03-3.29-5.87-5.4-3.5-3.98-4.07-4.71-4.48-5.29-1.35-1.91-2.42-4.08-3.15-6.42l-75.28-200.29-112.6,17.19-7.12,217.72-1.29,8.28-.3.81c-.76,2.02-1.77,3.87-3.04,5.52l5.45,35.69,77.99-11.91-5.24-34.35c-1.23-.43-2.52-1-3.8-1.68-5.46-2.67-8.96-7.42-9.87-13.39l-.59-3.88c-.69-4.49.21-8.97,2.66-13.29.95-1.82,2.06-3.25,3.37-4.33,2.47-2.2,4.92-3.46,7.48-3.85l28.8-4.4c2.56-.38,5.27.11,8.79,1.59Zm-12.8-39.83c-2.06,4.71-6.98,6.49-8.66,7.1-2.63.97-5.04,1.53-7.32,1.7-2.29.63-4.35.89-6.22.89-4.91,0-8.4-1.83-10.68-3.7-4.36-3.58-6.76-9.02-7.12-16.19l-.02-.39,3.92-95.44,37.31,89.16c2,5.7,1.58,11.51-1.2,16.86Z"/><path class="cls-2" d="m646.7,200.42c1.34,2.66,2.1,5.78,2.33,9.54l9.54,154.45c.19,3.11-.16,6.16-1.04,9.04-.66,2-1.75,4.2-3.48,7.12-1.08,1.8-2.31,3.39-3.69,4.75l2.08,33.67,187.77-11.59-7.27-117.67-55.96,3.46,2.74,44.46c.27,4.47.13,8.15-.43,11.23-.64,3.41-1.99,6.81-4.01,10.11-2.29,3.74-5.4,6.68-9.25,8.72-3.61,1.92-6.89,2.95-10.03,3.14l-8.4.52c-5.13.32-10.33.09-13.75-3.56-2.67-2.73-3.13-6.52-3.34-9.88l-9.41-152.39c-.4-6.61,1.58-13,5.9-18.99,1.33-2.06,2.85-3.94,4.55-5.61l-1.88-30.5-95.92,5.92,1.88,30.39c2.41,1.79,4.48,3.85,6.21,6.17,2.24,3.01,3.83,5.48,4.86,7.52Z"/><path class="cls-2" d="m993.05,335.25c2.6.1,5.18,1.1,8.35,3.21.81.49,1.72,1.15,2.88,2.08l.85.69.65.87c2.95,3.99,4.35,8.32,4.19,12.86l-.14,3.88c-.19,5.07-2.37,9.69-6.31,13.36-1.16,1.08-2.3,2-3.42,2.78l-1.3,35.34,93.58,3.45,1.32-35.65c-1.74-1.84-3.33-3.98-4.75-6.39-2.68-4.54-3.11-5.39-3.4-6.03-.98-2.15-1.62-4.48-1.91-6.91l-36.44-210.86-113.82-4.2-47.77,212.54-2.82,7.89-.44.74c-1.12,1.85-2.46,3.47-4.03,4.86l-1.33,36.08,78.84,2.91,1.28-34.73c-1.13-.66-2.29-1.45-3.41-2.36-4.87-3.65-7.42-8.97-7.2-15.01l.14-3.91c.17-4.56,1.89-8.79,5.11-12.57.76-.96,2.15-2.53,4.1-3.6,2.83-1.7,5.48-2.56,8.05-2.39l29.15,1.08Zm-34.17-55.82l.14-.78,21.64-92.62,19.95,94.57c.89,5.97-.6,11.6-4.33,16.32-2.91,4.25-8.07,5.08-9.84,5.36-1.78.29-3.44.44-4.99.44-.87,0-1.71-.05-2.52-.13-8.58.65-13.47-2.8-16.08-5.93-3.61-4.31-4.94-10.11-3.96-17.22Z"/><path class="cls-2" d="m1276.5,239.83c-3.05-.5-7.19-2.5-9.59-9.24l-.1-.31-9.51-30.21,4.76-29.16-81.33-13.29-5.63,34.43c.22.19.45.39.68.6,3.14,2.8,5.36,6.23,6.6,10.21l.19.74c.24,1.09.75,3.03,1.51,5.8l29.3,73.83c.88,2.84.94,6.33.18,11-.77,4.69-1.94,7.99-3.68,10.39l-.28.36-52.2,64.61c-2.38,3.1-4.33,5.31-6.02,6.8-1.77,1.57-3.95,3.03-6.67,4.45l-1.42.59-.99.31-5.9,36.13,66.08,10.81,5.28-32.33,17.51-27.7c3.7-7.18,8.69-8.7,12.18-8.55,4.8.18,10.46,3.33,11.42,11.56l7.73,33.8-5.1,31.22,88.95,14.54,5.63-34.43c-.23-.2-.47-.41-.71-.62-3.19-2.82-5.31-6.02-6.27-9.49-.46-1.63-1.07-3.84-1.83-6.59l-.2-.71-30.1-79.6c-.89-2.84-.94-6.35-.18-11.02.76-4.66,1.93-7.96,3.67-10.37l.33-.43,48.87-59.44c2.25-2.95,4.26-5.23,5.96-6.74,1.78-1.58,3.97-3.04,6.68-4.46l1.41-.58.99-.31,5.9-36.13-71.97-11.76-4.82,29.51-15.12,24.65c-2.85,6.25-8.11,7.82-12.21,7.14Z"/><path class="cls-2" d="m1573.31,241.62l-9.95,34.64-24.74,33.92c-3.57,6-9.05,6.94-13.06,5.8-5.4-1.55-8.74-6.21-8.66-11.98l-3.45-42.76,9.77-34.01-74.48-21.4-9.5,33.07c.72.8,1.41,1.68,2.07,2.64,2.25,3.3,3.58,6.74,3.98,10.25.23,2.1.5,4.23.8,6.44l18.07,126.69-11.58,40.32c-.91,3.18-2.4,5.79-4.41,7.76-.72.74-1.83,1.64-7.64,5.7l-1.24.72-3.28,1.55-9.52,33.15,86.96,24.99,9.23-32.12-1.91-3.49c-3.39-7.17-3.93-8.58-4.22-9.5l-.25-1c-.53-2.85-.32-5.97.63-9.27l11.8-41.07,81.84-93.67c5.55-6.52,7.12-7.92,8.16-8.71,2.01-1.6,4.28-2.99,6.62-4.01l1.34-.48,10.31-35.87-63.68-18.3Z"/><path class="cls-2" d="m225.4,334.09l16.97,69.02,13.99-3.43,6.35,25.86c.64,2.59.37,4.64-.86,6.68-1.23,2.04-2.93,3.22-5.52,3.86-3.81.94-6.06.04-7.42-.72-1.99-1.11-3.08-2.55-3.64-4.82l-34.54-140.53c-.69-2.79-.5-5.1.61-7.27.64-1.25,1.69-2.63,4.66-3.36,3.62-.89,5.66-.05,7.02.77,2.04,1.24,3.23,2.94,3.87,5.53l8.65,35.2,96.32-23.67-19.49-79.29-3.12-1.81c-17.15-9.96-36.02-15.52-56.13-16.51-15.65-.72-33.94,1.47-54.41,6.5-29.92,7.36-52.9,19.45-68.27,35.91-19.41,20.65-25.38,46.85-17.76,77.9l28.26,114.94c7.92,32.24,23.47,55.14,46.23,68.06,13.61,7.73,29.54,11.61,47.61,11.61,11.92,0,24.78-1.69,38.51-5.06,22.75-5.59,40.71-12.2,53.35-19.62,15.45-8.99,28.76-22.07,39.57-38.89l1.97-3.07-34.51-140.4-108.26,26.61Zm-29.84,154.04c-18.53-10.53-31.36-29.82-38.12-57.34l-28.25-114.94c-6.25-25.45-1.79-45.79,13.66-62.22,13.11-14.03,33.27-24.48,59.93-31.03,16.62-4.08,31.53-6.15,44.4-6.15,1.75,0,3.47.04,5.14.12,16.14.8,31.35,5,45.3,12.5l13.69,55.7-63.31,15.56-4.6-18.69h0c-1.7-6.91-5.7-12.45-11.57-16.01-5.86-3.54-12.74-4.49-19.87-2.73-7.16,1.76-12.61,5.96-15.75,12.15-2.98,5.84-3.64,12.25-1.97,19.04l34.54,140.53c1.67,6.82,5.78,12.21,11.86,15.6,5.98,3.33,12.62,4.13,19.76,2.38,6.92-1.7,12.45-5.7,16-11.56,3.55-5.87,4.53-12.62,2.82-19.54l-6.37-25.92c-1.46-5.92-2.16-7.78-3.59-9.49l-.78-.81c-4.44-4.05-10.45-3.35-13.65-2.68l-8.86-36.05,75.25-18.5,28.69,116.73c-8.95,13.09-19.64,23.3-31.85,30.4-11.24,6.6-27.67,12.58-48.83,17.79-30.19,7.42-54.97,5.8-73.66-4.82Z"/><path class="cls-1" d="m234.77,519.52c-18.91,0-35.76-4.13-50.08-12.26-23.99-13.62-40.35-37.58-48.61-71.21l-28.26-114.94c-8.06-32.8-1.67-60.56,18.97-82.52,16.04-17.18,39.84-29.75,70.72-37.34,20.95-5.15,39.73-7.39,55.83-6.64,20.92,1.03,40.56,6.81,58.41,17.19l4.96,2.88,21.19,86.21-106.03,26.06-9.85-40.06c-.36-1.45-.84-1.98-1.61-2.45-.42-.25-1.15-.69-3.23-.18-1.15.28-1.27.52-1.4.77-.4.79-.71,1.8-.21,3.8l9.86,40.11,111.88-27.5,36.21,147.34-3.13,4.88c-11.23,17.49-25.12,31.12-41.26,40.51-13.04,7.66-31.44,14.44-54.67,20.15-14.06,3.46-27.42,5.21-39.7,5.21Zm12.39-315.06c-13.84,0-29.71,2.18-47.26,6.5-28.96,7.12-51.11,18.72-65.81,34.47-18.19,19.34-23.75,44-16.56,73.3l28.26,114.94c7.58,30.85,22.33,52.69,43.84,64.9,12.8,7.27,27.98,10.96,45.14,10.96,11.48,0,24.03-1.66,37.31-4.92,22.28-5.48,39.78-11.89,52.01-19.07,14.78-8.6,27.52-21.14,37.89-37.29l.81-1.26-32.8-133.45-98.55,24.23,14.58,59.32,13.99-3.43,7.55,30.71c.95,3.87.48,7.29-1.44,10.46-1.91,3.17-4.73,5.17-8.61,6.13-4.14,1.02-7.75.63-11.04-1.2-3.2-1.78-5.18-4.4-6.06-8l-34.54-140.53c-.98-3.97-.65-7.48,1.01-10.74,1.57-3.07,4.16-5.02,7.93-5.94,4.1-1,7.63-.57,10.79,1.34,3.19,1.94,5.19,4.75,6.14,8.62l7.46,30.35,86.61-21.29-17.79-72.38-1.28-.75c-16.45-9.56-34.58-14.89-53.86-15.84-1.86-.09-3.77-.13-5.71-.13Zm-2.37,203.21l5.33,21.68c.24.97.49,1.24,1.21,1.64.5.28,1.45.81,3.79.23,1.61-.39,2.05-.95,2.44-1.59.47-.78.65-1.44.29-2.9l-5.16-21.01-7.9,1.94Zm-9.99,94.85c-15.98,0-29.94-3.35-41.71-10.04h0c-19.77-11.23-33.4-31.58-40.51-60.49l-28.25-114.95c-6.69-27.22-1.82-49.08,14.87-66.84,13.77-14.75,34.76-25.67,62.38-32.46,16.99-4.17,32.33-6.29,45.59-6.29,1.81,0,3.62.04,5.38.12,16.88.83,32.83,5.24,47.43,13.09l1.96,1.05,15.41,62.71-73.02,17.95-5.84-23.75c-1.41-5.51-4.6-9.91-9.26-12.73-4.7-2.84-10.26-3.58-16.08-2.15-5.71,1.4-10.03,4.7-12.49,9.56-2.42,4.75-2.95,9.99-1.58,15.58l34.54,140.53c1.33,5.43,4.6,9.73,9.44,12.43,4.84,2.7,10.26,3.33,16.13,1.89,5.6-1.38,10.07-4.59,12.92-9.29,2.85-4.7,3.62-10.15,2.25-15.75l-6.37-25.93c-1.27-5.16-1.8-6.49-2.48-7.36l-.51-.54c-2.02-1.77-5.1-2.23-9.14-1.38l-4.73.99-11.21-45.59,84.96-20.89,30.41,123.75-1.26,1.85c-9.37,13.7-20.63,24.43-33.47,31.9-11.64,6.83-28.52,13-50.15,18.32-12.79,3.14-24.68,4.71-35.61,4.71Zm-36.77-18.73c17.54,9.96,41.09,11.41,70,4.31,20.69-5.09,36.67-10.89,47.49-17.25,10.99-6.39,20.73-15.5,28.99-27.09l-26.95-109.67-65.54,16.11,6.61,26.88c6.48-.23,10.69,2.17,13.22,4.49l.24.23,1,1.06c2.14,2.56,3.07,5.24,4.62,11.5l6.37,25.93c2.03,8.23.85,16.3-3.4,23.32-4.26,7.02-10.85,11.8-19.08,13.83-8.4,2.06-16.27,1.1-23.38-2.87-7.33-4.09-12.27-10.58-14.29-18.78l-34.54-140.53c-1.97-7.99-1.17-15.56,2.37-22.51,3.82-7.52,10.4-12.62,19.02-14.73,8.44-2.08,16.61-.94,23.64,3.31,7.03,4.27,11.82,10.87,13.84,19.1l3.4,13.84,53.6-13.17-11.96-48.66c-12.75-6.5-26.6-10.16-41.23-10.88-13.55-.63-29.74,1.38-48.11,5.89-25.7,6.32-45.03,16.27-57.47,29.59-14.2,15.11-18.27,33.95-12.46,57.62l28.25,114.95c6.42,26.13,18.44,44.36,35.73,54.18h0Z"/><path class="cls-2" d="m610.22,375.78c-1.54-.76-3.1-2.04-4.66-3.81-1.86-2.11-3.01-3.43-3.34-3.84-.38-.53-.66-1.13-.87-1.82l-80.4-214.01-140.18,21.4-7.55,230.8-.83,5.33c-.27.5-.62.89-1.09,1.26l-3.96,3.06,9.4,61.61,111.59-17.04-9.98-65.38-7.69,1.15c-.24-.05-.62-.16-1.21-.36-.48-.16-1.01-.39-1.56-.69l-.46-.23c-.35-.17-.48-.29-.48-.29,0,0-.07-.12-.11-.42l-.59-3.88c-.04-.25-.14-.88.62-2.3l26.37-4.02c.21.08.5.19.87.35l.54.21s0,0,.01,0c.51.65.58,1.08.61,1.24l.59,3.84c.04.27.11.72-.61,1.71-.65.89-1.11,1.37-1.35,1.59l-6.48,1.94,9.8,64.19,126.17-19.26-9.21-60.36-3.98-1.96Zm-147.23-6.07c-2.56.38-5.01,1.65-7.48,3.85-1.31,1.07-2.42,2.51-3.37,4.33-2.45,4.32-3.34,8.79-2.66,13.29l.59,3.88c.91,5.97,4.42,10.71,9.87,13.39,1.27.68,2.56,1.26,3.8,1.68l5.24,34.35-77.99,11.91-5.45-35.69c1.27-1.65,2.29-3.5,3.04-5.52l.3-.81,1.29-8.28,7.12-217.72,112.6-17.19,75.28,200.29c.73,2.35,1.8,4.52,3.15,6.42.41.59.98,1.31,4.48,5.29,1.85,2.11,3.81,3.92,5.87,5.4l5.38,35.28-92.58,14.13-5.34-34.96c.96-.97,1.91-2.09,2.85-3.38,3.18-4.35,4.46-9.3,3.69-14.3l-.59-3.83c-.68-4.49-2.88-8.48-6.52-11.85l-.81-.75-.97-.52c-1.34-.71-2.33-1.18-3.22-1.5-3.52-1.48-6.23-1.97-8.79-1.59l-28.8,4.4Z"/><path class="cls-1" d="m372.56,481.44l-10.6-69.46,5.72-4.42.55-3.54,7.67-234.64,148.3-22.64,81.94,218.13c.04.12.07.22.11.29.51.62,2.27,2.61,3.06,3.51,1.39,1.58,2.45,2.3,3.11,2.63l6.33,3.1,10.36,67.88-136.06,20.77h0s-120.49,18.39-120.49,18.39Zm.17-65.15l8.2,53.75,101.71-15.53-8.47-55.51-3.69.55-.92-.21c-.45-.1-1-.26-1.68-.49-.71-.23-1.5-.57-2.31-1.01l-.35-.18c-.71-.35-1.31-.76-1.78-1.22l-.39-.39-.3-.47c-.42-.66-.69-1.42-.83-2.34l-.59-3.9c-.26-1.72.1-3.43,1.14-5.39l1.18-2.22,30.1-4.59,1.18.41c.27.1.63.23,1.1.43l1.18.45,1.06.84.35.45c.9,1.14,1.43,2.31,1.63,3.58l.59,3.84c.28,1.86-.21,3.62-1.51,5.41-.72.98-1.38,1.75-1.99,2.31l-.85.79-3.43,1.03,8.39,54.96,116.29-17.75-8.06-52.83-1.65-.81c-2.13-1.05-4.22-2.73-6.2-5-2.32-2.63-3.14-3.58-3.51-4.06l-.14-.18c-.65-.92-1.17-1.96-1.53-3.1l-78.93-210.08-132.07,20.16-7.42,226.95-1.01,6.49-.41.76c-.6,1.1-1.39,2.03-2.42,2.83l-1.64,1.27Zm110.02-27.35l.06.39,2.71-.81-2.77.42Zm-95.95,73.14l-6.52-42.74,1.3-1.69c.96-1.25,1.74-2.67,2.32-4.22l.13-.34,1.16-7.47,7.24-221.57,120.72-18.43,76.8,204.36c.57,1.83,1.4,3.52,2.46,5.02.29.41.84,1.11,4.15,4.88,1.6,1.83,3.29,3.39,5.04,4.64l1.71,1.23,6.45,42.3-102.46,15.64-6.47-42.4,1.78-1.79c.78-.78,1.57-1.72,2.35-2.79,2.39-3.27,3.35-6.93,2.79-10.6l-.59-3.83c-.52-3.39-2.14-6.32-4.98-8.94l-.33-.31-.39-.21c-1.13-.6-1.95-.99-2.59-1.22l-.22-.09c-3.36-1.42-5.03-1.41-6.11-1.25l-28.79,4.39c-1.57.24-3.17,1.1-4.9,2.63l-.16.14c-.77.63-1.46,1.54-2.12,2.79l-.08.14c-1.88,3.32-2.58,6.7-2.06,10.06l.59,3.89c.67,4.35,3.13,7.69,7.13,9.65l.16.08c1.04.56,2.1,1.03,3.07,1.36l2.86.99,6.46,42.28-87.88,13.42Zm3.98-40.17l4.39,28.77,68.11-10.4-4.06-26.61c-.52-.24-1.04-.5-1.56-.78-6.92-3.42-11.37-9.48-12.54-17.08l-.59-3.89c-.86-5.61.22-11.14,3.21-16.44,1.26-2.38,2.73-4.25,4.51-5.73,3.19-2.83,6.46-4.46,9.98-4.99l28.8-4.4c3.46-.52,7.08.08,11.38,1.88,1.06.4,2.22.94,3.73,1.74l1.55.82,1.29,1.2c4.49,4.16,7.2,9.13,8.06,14.76l.59,3.83c.97,6.34-.62,12.57-4.6,18.01-.52.71-1.05,1.39-1.58,2.02l4.22,27.67,82.69-12.62-4.33-28.35c-1.75-1.42-3.42-3.05-5-4.85-3.67-4.18-4.27-4.94-4.81-5.71-1.63-2.31-2.9-4.89-3.78-7.67l-73.8-196.37-104.49,15.95-6.99,213.87-1.42,9.09-.48,1.29c-.66,1.76-1.49,3.43-2.48,4.99Z"/><path class="cls-1" d="m451.66,221.05l-3.92,95.44.02.39c.37,7.17,2.76,12.61,7.12,16.19,2.28,1.87,5.77,3.7,10.68,3.7,1.86,0,3.93-.26,6.22-.89,2.28-.17,4.7-.74,7.32-1.7,1.68-.61,6.6-2.39,8.66-7.1,2.78-5.34,3.2-11.16,1.2-16.86l-37.31-89.16Zm21.43,97.23c-1.69.6-2.57.66-2.81.66h-1.27s-1.21.4-1.21.4c-1.24.39-1.92.46-2.25.43-.23-.37-.64-1.37-.78-3.41l.75-18.24,7.5,17.9c.26.83.3,1.52.09,2.25Z"/><path class="cls-2" d="m758.98,277.29l3.79,61.42c.23,3.77.03,5.95-.18,7.08-.25,1.34-.85,2.8-1.8,4.34-.7,1.14-1.56,1.96-2.72,2.58-2.05,1.09-2.98,1.17-3.09,1.18l-7.64.48-9.26-149.87c-.16-2.67.76-5.33,2.81-8.14l.31-.46c1.14-1.79,2.49-3.25,4.11-4.43l3.76-2.74-3.48-56.31-129.85,8.02,3.49,56.39,4.18,2.24c2.06,1.1,3.63,2.4,4.8,3.98,2.13,2.86,2.98,4.36,3.31,5.01.07.14.43.94.55,2.95l9.54,154.46c.07,1.09-.04,2.07-.27,2.82-.01.04-.33.96-1.89,3.59-.56.95-1.16,1.58-1.76,1.89l-4.91,2.55,3.75,60.69,221.69-13.69-9.36-151.59-89.88,5.56Zm-123.35-90.55l-1.88-30.39,95.92-5.92,1.88,30.5c-1.69,1.68-3.22,3.56-4.55,5.61-4.32,5.99-6.3,12.38-5.9,18.99l9.41,152.39c.21,3.37.66,7.15,3.34,9.88,3.42,3.65,8.63,3.88,13.75,3.56l8.4-.52c3.14-.19,6.42-1.21,10.03-3.14,3.85-2.04,6.96-4.98,9.25-8.72,2.02-3.3,3.37-6.7,4.01-10.11.57-3.08.71-6.76.43-11.23l-2.74-44.46,55.96-3.46,7.27,117.67-187.77,11.59-2.08-33.67c1.38-1.36,2.61-2.94,3.69-4.75,1.73-2.92,2.82-5.12,3.48-7.12.88-2.89,1.23-5.93,1.04-9.04l-9.54-154.45c-.23-3.76-.99-6.89-2.33-9.54-1.03-2.04-2.62-4.51-4.86-7.52-1.73-2.32-3.81-4.38-6.21-6.17Z"/><path class="cls-1" d="m631.85,442.31l-4.26-68.93,7.44-3.86c.03-.05.08-.12.13-.2.88-1.49,1.28-2.28,1.42-2.6.04-.2.06-.51.04-.93l-9.54-154.46c-.04-.66-.11-1.06-.15-1.24-.3-.55-1.05-1.78-2.74-4.05-.73-.98-1.76-1.81-3.15-2.56l-6.64-3.56-3.97-64.16,139.83-8.64,3.96,64.04-5.97,4.35c-1.1.81-2.03,1.81-2.84,3.08l-.49.73c-1.34,1.82-1.94,3.42-1.85,4.88l8.95,144.87,2.33-.15c.19-.07.64-.24,1.37-.62.32-.17.54-.34.81-.78.77-1.27,1.05-2.14,1.15-2.65.1-.56.33-2.29.11-5.86l-4.1-66.41,99.86-6.17,9.98,161.57-231.67,14.31Zm6.12-63.05l3.24,52.45,211.71-13.08-8.75-141.61-79.9,4.94,3.49,56.43c.21,3.43.13,6.23-.26,8.3-.37,1.96-1.19,3.99-2.45,6.05-1.18,1.92-2.7,3.35-4.65,4.39-2.02,1.08-3.75,1.67-5.12,1.75l-12.63.79-9.57-154.87c-.23-3.81,1.02-7.62,3.71-11.32l.22-.33c1.48-2.31,3.22-4.18,5.34-5.72l1.55-1.13-3-48.59-119.86,7.4,3,48.61,1.72.92c2.72,1.46,4.83,3.22,6.45,5.41,1.8,2.42,3.07,4.36,3.77,5.76.57,1.12.94,2.78,1.07,4.88l9.54,154.46c.1,1.64-.06,3.23-.48,4.59-.32,1.11-1.47,3.16-2.37,4.68-1.05,1.76-2.32,3.03-3.76,3.78l-2.02,1.05Zm-2.58-9.93s0,0,0,0h0Zm1.17-2.51s-.02.06-.02.07c0-.02.01-.04.02-.07Zm.09-.26h0Zm118.02-17.66s-.1,0-.22.01h.22Zm-127.69-138.73c.04.08.07.13.08.16-.02-.04-.05-.09-.08-.16Zm-.08-.22h0Zm20.86,214.34l-2.53-40.93,1.61-1.6c1.08-1.07,2.06-2.33,2.92-3.76,1.54-2.59,2.47-4.47,3-6.07.69-2.29.97-4.72.81-7.21l-9.54-154.45c-.19-3.08-.78-5.57-1.81-7.61-.89-1.77-2.37-4.05-4.4-6.79-1.43-1.91-3.17-3.64-5.18-5.13l-1.87-1.39-2.33-37.7,105.9-6.54,2.33,37.76-1.61,1.6c-1.43,1.42-2.73,3.02-3.87,4.78l-.14.21c-3.63,5.03-5.3,10.33-4.96,15.76l9.41,152.39c.19,3.12.58,5.33,1.92,6.7l.07.07c1.64,1.74,4.47,2.32,9.8,1.99l8.4-.52c2.42-.15,5.03-.98,7.99-2.56,3.05-1.62,5.51-3.94,7.33-6.91,1.71-2.79,2.84-5.62,3.36-8.42.49-2.66.61-5.94.36-10.01l-3.05-49.45,65.94-4.07,7.88,127.65-197.76,12.21Zm7.72-37.15l1.64,26.55,177.79-10.98-6.65-107.68-45.98,2.84,2.44,39.47c.3,4.89.13,8.96-.51,12.45-.75,4.01-2.32,7.99-4.66,11.82-2.76,4.52-6.52,8.06-11.17,10.53-4.24,2.26-8.19,3.47-12.07,3.71l-8.39.52c-6.01.37-12.81.06-17.68-5.09-3.67-3.78-4.43-8.5-4.71-13.03l-9.41-152.39c-.47-7.76,1.8-15.2,6.76-22.12,1.08-1.65,2.27-3.21,3.55-4.65l-1.44-23.34-85.94,5.3,1.43,23.18c2.02,1.71,3.82,3.63,5.37,5.71,2.41,3.24,4.15,5.94,5.31,8.26,1.65,3.28,2.58,7.03,2.86,11.49l9.54,154.45c.23,3.71-.19,7.36-1.25,10.82l-.03.11c-.77,2.32-1.98,4.82-3.93,8.1-.87,1.45-1.83,2.79-2.87,4.01Z"/><path class="cls-2" d="m1103.57,363.11c-1.44-2.45-2.33-3.96-2.55-4.4-.28-.61-.44-1.26-.52-1.99l-38.91-225.26-141.71-5.23-50.63,225.3-1.82,5.09c-.35.43-.77.77-1.3,1.03l-4.46,2.27-2.3,62.27,112.81,4.17,2.44-66.11-7.76-.3c-.22-.1-.58-.27-1.11-.57-.45-.24-.93-.58-1.43-1l-.38-.29c-.32-.24-.42-.38-.42-.38,0-.01-.04-.14-.03-.44l.14-3.91c0-.25.03-.89,1.04-2.15l26.66.98c.19.11.45.27.78.5l.51.32s0,0,0,0c.38.72.37,1.14.36,1.33l-.14,3.87c-.01.27-.03.73-.92,1.57-.8.75-1.33,1.13-1.61,1.31l-6.73.68-2.39,64.91,127.55,4.7,2.25-61.01-3.54-2.67c-1.37-1.03-2.66-2.58-3.86-4.6Zm-147.72-26.55c-1.95,1.07-3.35,2.64-4.1,3.6-3.22,3.78-4.94,8.01-5.11,12.57l-.14,3.91c-.22,6.04,2.33,11.36,7.2,15.01,1.12.91,2.28,1.7,3.41,2.36l-1.28,34.73-78.84-2.91,1.33-36.08c1.56-1.39,2.91-3.01,4.03-4.86l.44-.74,2.82-7.89,47.77-212.54,113.82,4.2,36.44,210.86c.29,2.43.93,4.76,1.91,6.91.29.64.72,1.49,3.4,6.03,1.42,2.41,3.01,4.55,4.75,6.39l-1.32,35.65-93.58-3.45,1.3-35.34c1.13-.78,2.27-1.71,3.42-2.78,3.94-3.68,6.12-8.29,6.31-13.36l.14-3.88c.17-4.54-1.24-8.87-4.19-12.86l-.65-.87-.85-.69c-1.16-.93-2.07-1.59-2.88-2.08-3.17-2.12-5.75-3.11-8.35-3.21l-29.15-1.08c-2.57-.17-5.22.69-8.05,2.39Z"/><path class="cls-1" d="m1113.53,436.57l-136.54-5.03h0s-122.8-4.53-122.8-4.53l2.59-70.21,6.45-3.28,1.21-3.38,51.48-229.06,149.91,5.53,39.64,229.57c.02.18.05.3.07.38.42.75,1.84,3.17,2.34,4.02,1.07,1.81,1.98,2.71,2.56,3.15l5.62,4.24-2.53,68.61Zm-127.18-14.7l117.55,4.33,1.97-53.41-1.46-1.1c-1.89-1.42-3.63-3.46-5.16-6.05h0c-1.96-3.33-2.45-4.2-2.68-4.63l-.12-.25c-.47-1.04-.77-2.13-.92-3.34l-38.19-221.12-133.5-4.93-49.79,221.55-2.21,6.19-.55.67c-.8.97-1.78,1.76-2.93,2.33l-1.81.92-2,54.34,102.81,3.8,2.07-56.13-3.73-.15-.87-.39c-.46-.2-.97-.46-1.53-.78-.64-.35-1.36-.84-2.1-1.44l-.28-.22c-.66-.49-1.18-1.02-1.56-1.59l-.23-.38c-.48-.87-.69-1.87-.65-3.04l.15-3.9c.06-1.72.74-3.35,2.14-5.09l1.57-1.96,30.43,1.12,1.09.64c.06.04.13.08.21.12h1.63l1.37,2.73c.66,1.26.95,2.5.91,3.79l-.14,3.88c-.08,1.9-.9,3.54-2.51,5.04-.86.8-1.65,1.44-2.35,1.88l-1,.63-3.57.36-2.05,55.56Zm-17.88-64.42h0s0,0,0,0Zm11.27-.68v.36s2.63-.27,2.63-.27l-2.63-.1Zm-11.13-3.25h0s0,0,0,0Zm-104.76-.32s0,0,0,0h0Zm233.32,65.76l-103.58-3.82,1.58-42.84,2.07-1.42c.9-.62,1.86-1.4,2.85-2.32,2.99-2.79,4.58-6.12,4.72-9.89l.14-3.87c.12-3.39-.96-6.66-3.21-9.72l-.27-.36-.36-.29c-.97-.78-1.71-1.32-2.29-1.67l-.21-.13c-3.04-2.03-4.68-2.34-5.77-2.38l-29.28-1.08c-1.42-.1-3.1.46-5.14,1.69l-.18.1c-.87.48-1.74,1.25-2.58,2.32l-.11.14c-2.47,2.9-3.79,6.11-3.92,9.52l-.14,3.91c-.16,4.41,1.64,8.15,5.2,10.83l.14.11c.92.75,1.86,1.39,2.77,1.92l2.6,1.51-1.58,42.73-88.84-3.27,1.59-43.21,1.59-1.42c1.18-1.05,2.22-2.3,3.08-3.72l.18-.3,2.55-7.13,48.61-216.29,122.03,4.5,37.17,215.12c.23,1.92.73,3.75,1.49,5.43.2.44.62,1.26,3.15,5.55,1.22,2.08,2.59,3.92,4.08,5.5l1.44,1.52-1.58,42.75Zm-93.21-13.44l83.59,3.08,1.06-28.65c-1.45-1.72-2.79-3.63-3.99-5.68-2.8-4.75-3.26-5.66-3.64-6.5-1.17-2.57-1.94-5.35-2.3-8.25l-35.72-206.74-105.62-3.9-46.92,208.78-3.09,8.65-.7,1.17c-.98,1.62-2.12,3.11-3.39,4.46l-1.07,29.09,68.85,2.54.99-26.91c-.46-.33-.92-.69-1.38-1.05-6.16-4.66-9.4-11.45-9.12-19.14l.14-3.91c.21-5.69,2.31-10.93,6.25-15.57,1.64-2.05,3.48-3.65,5.47-4.76,3.79-2.26,7.32-3.27,10.79-3.05l29.09,1.07c3.5.14,6.95,1.4,10.84,3.99.97.59,2.01,1.34,3.34,2.41l1.35,1.1,1.02,1.38c3.64,4.93,5.38,10.32,5.17,16.02l-.14,3.87c-.24,6.42-2.97,12.24-7.9,16.84-.65.61-1.29,1.17-1.93,1.69l-1.03,27.96Z"/><path class="cls-1" d="m978.92,302.59c.81.09,1.65.13,2.52.13,1.55,0,3.21-.14,4.99-.44,1.77-.28,6.94-1.11,9.84-5.36,3.73-4.72,5.23-10.35,4.33-16.32l-19.95-94.57-21.64,92.62-.14.78c-.98,7.12.36,12.91,3.96,17.22,2.61,3.13,7.5,6.59,16.08,5.93Zm4.57-17.04c-1.79.27-2.65.16-2.87.12l-1.26-.23-1.27.16c-1.29.15-1.99.06-2.3,0-.15-.39-.37-1.46-.13-3.49l4.15-17.77,4.01,18.99c.1.86,0,1.55-.33,2.23Z"/><path class="cls-2" d="m1287.6,202l-7.85,12.8-5.03-15.97,6.85-41.94-114.87-18.77-10.28,62.85,5.79,2.53c.24.16.93.66,2.3,1.87.74.67,1.25,1.4,1.57,2.32.32,1.38.91,3.62,1.76,6.7l29.26,73.82c.02.4,0,1.4-.3,3.3-.35,2.12-.69,3.05-.71,3.19l-52.02,64.39c-2.42,3.14-3.55,4.25-3.93,4.59-.44.39-1.25,1-2.67,1.78l-10.23,3.19-10.34,63.26,99.62,16.28,7.47-45.69,10.65-16.86,4.66,20.36-7.31,44.71,122.5,20.02,10.29-62.94-5.85-2.47c-.25-.17-.94-.68-2.26-1.86-.99-.88-1.19-1.37-1.19-1.38-.47-1.64-1.07-3.81-1.81-6.52l-30.39-80.73c-.02-.38-.01-1.38.31-3.34.34-2.08.67-3.02.71-3.19l48.69-59.24c2.37-3.1,3.54-4.24,3.92-4.58.44-.38,1.24-.99,2.66-1.78l10.23-3.19,10.34-63.26-105.51-17.24-7.02,42.98Zm21.05-23.47l71.97,11.76-5.9,36.13-.99.31-1.41.58c-2.71,1.42-4.9,2.88-6.68,4.46-1.7,1.5-3.71,3.79-5.96,6.74l-48.87,59.44-.33.43c-1.74,2.42-2.91,5.71-3.67,10.37-.77,4.67-.71,8.18.18,11.02l30.1,79.6.2.71c.76,2.75,1.37,4.96,1.83,6.59.96,3.47,3.08,6.67,6.27,9.49.24.22.48.42.71.62l-5.63,34.43-88.95-14.54,5.1-31.22-7.73-33.8c-.96-8.23-6.61-11.38-11.42-11.56-3.49-.15-8.48,1.37-12.18,8.55l-17.51,27.7-5.28,32.33-66.08-10.81,5.9-36.13.99-.31,1.42-.59c2.71-1.42,4.9-2.88,6.67-4.45,1.69-1.49,3.64-3.7,6.02-6.8l52.2-64.61.28-.36c1.74-2.4,2.91-5.7,3.68-10.39.76-4.67.7-8.17-.18-11l-29.3-73.83c-.76-2.77-1.27-4.71-1.51-5.8l-.19-.74c-1.24-3.98-3.46-7.41-6.6-10.21-.23-.21-.46-.41-.68-.6l5.63-34.43,81.33,13.29-4.76,29.16,9.51,30.21.1.31c2.4,6.73,6.54,8.74,9.59,9.24,4.1.67,9.36-.89,12.21-7.14l15.12-24.65,4.82-29.51Z"/><path class="cls-1" d="m1358.62,476.48l-132.37-21.63,7.96-48.68-1.76-7.69-3.69,5.84-8.11,49.62-109.49-17.89,11.64-71.24,12.66-3.95c.87-.51,1.26-.83,1.38-.93.05-.04.97-.9,3.26-3.88l.07-.09,51.35-63.57c.1-.4.21-.95.33-1.69.12-.71.18-1.24.21-1.61l-28.98-73.11-.07-.26c-.78-2.83-1.36-5.01-1.71-6.48-.03-.04-.07-.08-.14-.15-.71-.63-1.19-1.02-1.46-1.23l-8.84-3.86,11.71-71.62,124.74,20.38-7.47,45.7,1.38,4.37,1.6-2.6,7.67-46.95,115.38,18.86-11.64,71.24-12.66,3.95c-.9.53-1.29.85-1.36.92-.03.02-.95.86-3.25,3.87l-.11.14-48.01,58.41c-.09.39-.2.93-.32,1.64-.13.77-.19,1.32-.22,1.69l30.13,80.02.44,1.61c.44,1.59.82,2.96,1.15,4.12.69.61,1.15.99,1.43,1.21l8.92,3.76-11.73,71.76Zm-120.88-29.89l112.63,18.4,8.85-54.12-2.69-1.13-.42-.29c-.47-.32-1.33-.97-2.76-2.25-1.82-1.62-2.47-2.92-2.72-3.9-.38-1.33-.84-3.01-1.4-5.01l-.32-1.17-30.58-81.24-.04-.77c-.06-1.09.07-2.58.37-4.42.33-2.04.68-3.21.81-3.67l.25-1.01,49.36-60.05c1.89-2.46,3.45-4.27,4.53-5.22.89-.79,2.08-1.59,3.55-2.41l.45-.25,7.77-2.43,9.04-55.28-95.64-15.63-6.38,39.02-14.1,22.99-8.68-27.58,6.24-38.18-105-17.16-8.84,54.08,2.64,1.15.37.25c.47.32,1.35.97,2.82,2.27,1.4,1.26,2.36,2.68,2.97,4.38l.16.56c.3,1.29.85,3.39,1.63,6.24l29.48,74.36.03.86c.04,1.11-.08,2.56-.37,4.3-.3,1.83-.61,2.96-.76,3.48l-.17,1.04-52.81,65.37c-1.92,2.49-3.43,4.24-4.51,5.21-.94.83-2.13,1.63-3.58,2.44l-.45.25-7.77,2.43-9.04,55.28,89.75,14.66,6.82-41.76,17.62-27.88,7.55,33.04-6.66,40.75Zm-36.71-151.07v.07s0-.05,0-.07Zm143.57,161.44l-98.82-16.16,5.75-35.19-7.57-33.11-.03-.27c-.73-6.25-4.88-7.08-6.64-7.14-2.91-.1-5.51,1.9-7.55,5.84l-.22.38-16.97,26.84-5.92,36.26-75.95-12.42,7.21-44.1,3.72-1.17,1-.41c2.26-1.2,4.05-2.39,5.48-3.66,1.43-1.26,3.18-3.25,5.38-6.11l.08-.09,52.34-64.81c1.23-1.73,2.14-4.42,2.77-8.23.6-3.72.62-6.52.03-8.55l-29.32-73.88-.07-.26c-.83-3.01-1.3-4.81-1.55-5.96l-.14-.52c-.97-3.06-2.7-5.71-5.12-7.87l-2.7-2.35.41-2.79,6.43-39.37,91.2,14.91-5.38,32.92,9.21,29.25c1.27,3.53,3.18,5.53,5.67,5.94,1.38.22,4.79.26,6.86-4.28l.29-.54,14.6-23.81,5.47-33.47,81.84,13.38-7.21,44.11-3.73,1.17-.99.41c-2.26,1.2-4.06,2.4-5.49,3.67-.99.87-2.71,2.63-5.3,6.03l-.11.14-49.04,59.68c-1.24,1.74-2.14,4.43-2.75,8.2-.62,3.76-.62,6.57-.02,8.61l30.13,79.66.26.94c.75,2.74,1.36,4.94,1.82,6.56.71,2.54,2.31,4.93,4.78,7.11.25.22.46.41.67.59l2.12,1.83-6.89,42.12Zm-87.34-24.41l79.08,12.93,4.39-26.83c-3.18-3.16-5.34-6.74-6.43-10.63-.46-1.62-1.07-3.84-1.83-6.6l-.14-.49-30.12-79.66c-1.13-3.62-1.24-7.85-.34-13.33.89-5.45,2.33-9.42,4.55-12.49l.53-.68,48.81-59.37c2.49-3.26,4.64-5.67,6.57-7.38,2.08-1.84,4.59-3.53,7.67-5.14l.26-.13,4.63-28.34-62.1-10.15-4.17,25.54-15.48,25.24c-4.08,8.6-11.91,10.62-17.43,9.71-3.58-.58-10.1-2.98-13.49-12.49l-.14-.42-9.89-31.42,4.15-25.39-71.46-11.68-4.39,26.85c3.11,3.15,5.36,6.9,6.69,11.17l.31,1.17c.25,1.15.88,3.5,1.37,5.26l29.27,73.76.06.18c1.12,3.6,1.22,7.83.34,13.29-.9,5.49-2.35,9.47-4.56,12.52l-.44.58-52.16,64.57c-2.61,3.39-4.72,5.76-6.64,7.46-2.07,1.84-4.58,3.52-7.66,5.13l-.26.13-4.63,28.34,56.21,9.19,4.64-28.4,17.94-28.39c5.45-10.38,13.51-11.18,16.73-11.05,7.08.27,14.79,5.23,16.13,15.69l7.89,34.51-4.45,27.25Z"/><path class="cls-2" d="m1561.67,220.6l-13.82,48.08-15.09,20.69-2.13-26.41,13.61-47.36-107.14-30.79-15.77,54.87-2.11,7.18,6.88,2.95s.45.26,1.16,1.31c.66.97,1.04,1.84,1.12,2.54.24,2.22.53,4.52.86,6.94l17.57,123.12-10.58,36.83c-.05.19-.1.33-.14.43-.53.4-1.79,1.33-4.72,3.38l-9.59,4.52-16.34,56.87,119.63,34.38,15.86-55.2-4.93-8.94c-1.79-3.77-2.62-5.62-2.98-6.46.03-.24.09-.6.23-1.1l10.76-37.44,79.42-90.9c4.46-5.24,5.65-6.32,5.74-6.4.88-.71,1.78-1.28,2.67-1.7l8.67-2.77,17.51-60.92-96.34-27.69Zm63.67,75.67c-2.33,1.02-4.6,2.41-6.62,4.01-1.04.79-2.61,2.19-8.16,8.71l-81.84,93.67-11.8,41.07c-.95,3.3-1.16,6.42-.63,9.27l.25,1c.29.92.83,2.34,4.22,9.5l1.91,3.49-9.23,32.12-86.96-24.99,9.52-33.15,3.28-1.55,1.24-.72c5.82-4.06,6.93-4.96,7.64-5.7,2.01-1.97,3.5-4.58,4.41-7.76l11.58-40.32-18.07-126.69c-.31-2.21-.57-4.35-.8-6.44-.4-3.51-1.73-6.96-3.98-10.25-.65-.96-1.34-1.83-2.07-2.64l9.5-33.07,74.48,21.4-9.77,34.01,3.45,42.76c-.08,5.78,3.26,10.43,8.66,11.98,4.01,1.14,9.49.2,13.06-5.8l24.74-33.92,9.95-34.64,63.68,18.3-10.31,35.87-1.34.48Z"/><path class="cls-1" d="m1528.5,526.31l-129.24-37.14,18.34-63.85,11.25-5.31c1.34-.94,2.28-1.61,2.93-2.08l9.94-34.58-17.42-122.06c-.34-2.47-.62-4.71-.86-6.86-.04-.08-.12-.23-.26-.45l-10-4.29,3.36-11.44,17.14-59.64,116.75,33.55-14.74,51.29.97,12.07,6.63-9.09,14.95-52.03,105.95,30.45-19.63,68.3-10.83,3.47c-.42.23-.86.51-1.3.85-.28.28-1.61,1.64-5.2,5.85l-78.73,90.11-10.23,35.6c.46,1.01,1.15,2.51,2.18,4.67l5.86,10.62-17.82,61.99Zm-116.87-43.99l110.02,31.62,13.91-48.41-4.08-7.41c-1.77-3.75-2.64-5.66-3.05-6.6l-.53-1.2.13-1.31c.06-.6.19-1.25.4-1.98l11.06-38.5,80.16-91.74c4.28-5.03,5.75-6.47,6.19-6.85l.2-.17c1.17-.94,2.39-1.71,3.62-2.3l.64-.26,6.12-1.96,15.39-53.55-86.73-24.92-12.68,44.12-23.55,32.29-3.28-40.75,12.48-43.43-97.53-28.03-15.26,53.02,3.51,1.51.43.37c.75.57,1.48,1.37,2.19,2.41,1.13,1.66,1.79,3.27,1.96,4.81.23,2.14.51,4.37.85,6.81l17.72,124.15-10.88,37.86c-.11.37-.21.64-.28.84l-.51,1.33-1.13.86c-.85.65-2.49,1.83-4.89,3.5l-.35.24-7.93,3.74-14.33,49.89Zm11.86-227.8h0Zm93.37,250.77l-96.57-27.76,11.53-40.13,5.14-2.42.88-.51c4.97-3.47,6.3-4.5,6.75-4.97l.09-.09c1.39-1.36,2.43-3.23,3.1-5.56l11.29-39.3-17.92-125.63c-.33-2.4-.6-4.56-.82-6.61-.3-2.67-1.36-5.36-3.14-7.98-.52-.76-1.07-1.47-1.65-2.11l-1.86-2.06,11.65-40.54,84.09,24.16-10.9,37.94,3.39,42.09v.24c-.05,3.53,1.83,6.19,5.04,7.11,1.35.38,4.79.81,7.38-3.55l.26-.39,24.21-33.2,11.09-38.59,73.29,21.06-12.4,43.13-3.58,1.28c-1.85.83-3.7,1.96-5.36,3.28l-.08.06c-.8.61-2.36,2.06-7.38,7.97l-81.15,92.88-11.5,40c-.72,2.49-.9,4.79-.55,6.84l.17.67c.26.78.98,2.5,3.87,8.6l2.82,5.17-11.18,38.9Zm-84.2-34.61l77.35,22.23,7.28-25.34-1.05-1.95c-3.55-7.51-4.09-8.94-4.47-10.15l-.08-.29-.31-1.28c-.67-3.62-.42-7.52.74-11.57l12.11-42.14,82.58-94.51c5.78-6.79,7.5-8.33,8.85-9.36,2.13-1.69,4.5-3.16,6.9-4.29l8.25-28.7-54.06-15.54-8.82,30.68-25.13,34.45c-5.03,8.25-13.15,9.39-18.6,7.84-7.51-2.16-12.31-8.66-12.3-16.61l-3.5-43.45,8.64-30.08-64.87-18.64-7.4,25.76c.23.31.45.62.67.94,2.71,3.98,4.33,8.19,4.82,12.52.21,1.98.47,4.04.79,6.32l18.22,127.72-11.88,41.35c-1.15,4-3.06,7.33-5.68,9.91-1.07,1.09-2.47,2.18-8.32,6.27l-.35.23-1.62.92-1.24.58-7.52,26.16Z"/><circle class="cls-2" cx="846.2" cy="803.14" r="431.14" transform="translate(-320.06 833.59) rotate(-45)"/><path class="cls-1" d="m846.72,1242.28c-7.77,0-15.56-.2-23.38-.61-117.14-6.1-224.88-57.46-303.39-144.6-78.51-87.14-118.39-199.64-112.28-316.78,6.11-117.14,57.46-224.88,144.61-303.39,87.14-78.51,199.66-118.38,316.78-112.28,117.13,6.1,224.88,57.46,303.39,144.6,78.51,87.14,118.39,199.64,112.28,316.78-6.11,117.14-57.46,224.88-144.6,303.39-81.33,73.27-184.75,112.89-293.4,112.89Zm-.74-862.11c-100.98,0-202.28,35.83-283.04,108.58-83.98,75.66-133.47,179.49-139.35,292.37-5.88,112.88,32.54,221.3,108.2,305.27,75.66,83.98,179.49,133.47,292.37,139.35,112.88,5.89,221.29-32.55,305.27-108.2,83.98-75.66,133.47-179.49,139.35-292.37,5.88-112.88-32.54-221.29-108.2-305.26h0c-83.43-92.6-198.8-139.73-314.6-139.73Z"/><circle class="cls-2" cx="846.2" cy="803.14" r="431.14" transform="translate(-320.06 833.59) rotate(-45)"/><path class="cls-1" d="m846.72,1242.28c-7.77,0-15.56-.2-23.38-.61-117.14-6.1-224.88-57.46-303.39-144.6-78.51-87.14-118.39-199.64-112.28-316.78,6.11-117.14,57.46-224.88,144.61-303.39,87.14-78.51,199.66-118.38,316.78-112.28,117.13,6.1,224.88,57.46,303.39,144.6,78.51,87.14,118.39,199.64,112.28,316.78-6.11,117.14-57.46,224.88-144.6,303.39-81.33,73.27-184.75,112.89-293.4,112.89Zm-.74-862.11c-100.98,0-202.28,35.83-283.04,108.58-83.98,75.66-133.47,179.49-139.35,292.37-5.88,112.88,32.54,221.3,108.2,305.27,75.66,83.98,179.49,133.47,292.37,139.35,112.88,5.89,221.29-32.55,305.27-108.2,83.98-75.66,133.47-179.49,139.35-292.37,5.88-112.88-32.54-221.29-108.2-305.26h0c-83.43-92.6-198.8-139.73-314.6-139.73Z"/><path class="cls-1" d="m424.03,890.73c3.61,7.02,95.26,63.13,238.01,42.34,142.75-20.79,192.31-42.47,192.31-42.47,0,0-117.94,60-197.94,73.85-80,13.85-144.01,8.56-144.01,8.56,0,0,96.97,37.59,225.28,8.03,0,0-94.42,41.47-186.35,34.62,0,0,150.31,25.33,286.76-29.34,0,0-116.99,76-252.52,92.08,0,0,94.45,22.22,212.4-19.57,0,0-107.58,63.13-207.68,54.08,0,0,113.91,34.45,289.27-23.07,0,0-102.26,53.71-185.4,59.72-83.14,6.01-102.28-.88-102.28-.88,0,0,71.24,36.98,208.65,7.41,0,0-85.95,39.9-145.56,36.48l-91.97-61.44-62.16-64.29-46.48-79.67-30.33-96.43Z"/><path class="cls-2" d="m415.22,788.23c-1.18,33.86,1.65,68.23,8.81,102.5-82.94,61.14-126.72,116.42-112.38,152.21,29.68,74.07,297.02,36.63,597.13-83.61,300.11-120.24,519.34-277.77,489.66-351.83-14.34-35.79-84.15-45.54-186.32-32.51-18.41-29.59-40.11-56.44-64.47-80.21,287.77-76.56,504.49-82.47,536.79-1.87,45.3,113.05-289.31,353.48-747.38,537.01-458.06,183.53-866.11,240.66-911.41,127.61-32.3-80.61,128.55-225.97,389.57-369.3Z"/><path class="cls-1" d="m192.31,1223.47c-96.97,0-157.41-21.4-174.07-62.98-17.18-42.87,12.01-100.04,86.75-169.92,69.66-65.14,175.61-137.52,306.39-209.33l12.3-6.75-.49,14.02c-1.17,33.67,1.74,67.51,8.64,100.59l1.05,5.01-4.12,3.04c-81.9,60.38-121.89,112.43-109.71,142.83,24.52,61.19,266.14,40.41,586.76-88.05,144.57-57.92,274.83-126.22,366.81-192.3,86.63-62.25,130.89-118,118.41-149.16-12.18-30.38-77.02-40.42-177.91-27.57l-5.08.65-2.71-4.34c-17.85-28.69-39.14-55.17-63.27-78.72l-10.05-9.81,13.57-3.62c144.18-38.36,270.8-59.15,366.16-60.14,102.31-1.07,162.9,20.15,180.08,63.02,23.41,58.42-43.25,147.74-187.68,251.52-141.67,101.8-342.02,206.87-564.13,295.87-222.12,89-439.59,151.33-612.35,175.52-50.78,7.11-96.08,10.63-135.37,10.63Zm214.68-421.58c-124.07,68.98-224.54,138.1-291.1,200.33-68.47,64.02-97.11,116.7-82.84,152.33,20.11,50.2,126.69,65.69,292.41,42.48,171.52-24.01,387.67-85.99,608.63-174.52,220.96-88.54,420.11-192.95,560.76-294.01,135.89-97.64,202.29-182.43,182.18-232.63-14.28-35.64-71.45-54.03-165.1-53-91.12.94-211.51,20.32-348.88,56.09,19.85,20.66,37.66,43.29,53.11,67.47,77.09-9.36,170.48-9.84,189.68,38.09,20.32,50.7-56.17,119.37-123.91,168.04-92.99,66.82-224.46,135.78-370.19,194.16-145.73,58.39-288.44,99.29-401.84,115.17-82.61,11.56-185.35,14.71-205.67-36-19.21-47.93,48.71-112.09,110.96-158.56-5.54-28.15-8.29-56.82-8.21-85.45Z"/><path class="cls-1" d="m418.18,833.76c-23.29,13.69-46.32,27.8-69.01,42.41-22.72,14.56-45.09,29.65-66.94,45.42-21.82,15.79-43.23,32.14-63.58,49.64-20.33,17.47-39.9,35.9-56.91,56.19-8.46,10.14-16.35,20.73-22.68,31.96-3.28,5.57-5.82,11.39-8.04,17.24-1.88,5.87-3.61,11.85-3.74,17.69-.24,5.83.55,11.47,2.59,16.65,2.13,5.14,5.52,9.73,9.83,13.66,8.63,7.95,20.53,13.04,32.75,16.7,24.81,7.06,51.65,8.73,78.2,8.82,26.65-.05,53.42-1.97,80.09-5,26.68-3,53.27-7.07,79.76-11.84,26.5-4.71,52.89-10.14,79.18-16.04,52.57-11.91,104.73-25.83,156.45-41.24,103.44-30.86,205.23-67.37,305.22-108.16,100.07-40.59,198.45-85.49,293.89-135.88,47.7-25.21,94.64-51.85,140.29-80.46,22.84-14.28,45.28-29.16,67.31-44.58,21.99-15.45,43.55-31.52,64.14-48.63,20.57-17.1,40.37-35.17,57.79-55.04,8.65-9.95,16.81-20.31,23.43-31.36,3.37-5.49,6.31-11.16,8.64-16.95,2.34-5.78,4.1-11.68,4.83-17.53,1.53-11.69-1.59-22.92-9.75-31.18l-1.44-1.6c-.52-.51-1.12-.96-1.67-1.43-1.14-.94-2.22-1.93-3.39-2.85-2.57-1.61-4.89-3.51-7.72-4.85l-4.09-2.2-4.34-1.87c-2.83-1.34-5.92-2.27-8.92-3.34-12.18-4.01-25.15-6.4-38.25-7.98-13.12-1.54-26.4-2.36-39.75-2.54-53.45-.69-107.2,5.78-160.34,14.53-53.18,8.92-105.98,20.51-158.4,33.63l-2.42-9.26c52.37-14.17,105.24-26.67,158.75-36.29,53.5-9.52,107.64-16.82,162.57-16.85,13.73,0,27.51.78,41.29,2.27,13.77,1.56,27.59,3.95,41.17,8.29,3.38,1.17,6.79,2.18,10.11,3.7l5,2.12,4.88,2.56c3.3,1.57,6.34,3.88,9.49,5.88,1.5,1.15,2.95,2.41,4.42,3.63.72.62,1.48,1.2,2.17,1.87l2,2.13c1.28,1.47,2.76,2.74,3.85,4.42l3.39,4.88c1.86,3.52,3.78,7.05,4.89,10.91,2.43,7.64,2.89,15.71,2,23.29-.89,7.61-3.01,14.78-5.68,21.56-2.68,6.79-5.96,13.2-9.61,19.27-7.22,12.24-15.81,23.29-24.82,33.83-18.13,21.01-38.33,39.69-59.22,57.37-41.89,35.26-86.8,66.31-132.81,95.34-46.04,29.02-93.27,55.99-141.23,81.5-95.95,51-194.74,96.4-295.24,137.47-100.63,40.74-203.05,77.17-307.24,107.95-52.1,15.38-104.66,29.25-157.73,41.13-53.08,11.82-106.71,21.59-161.03,27.3-27.15,2.86-54.48,4.61-81.98,4.44-13.75-.11-27.54-.74-41.34-2.22-13.79-1.45-27.62-3.9-41.25-7.91-13.52-4.22-27.29-9.92-38.68-20.45-5.63-5.21-10.47-11.76-13.46-19.19-2.92-7.47-3.92-15.48-3.51-23.15l.54-5.71,1.11-5.53c.32-1.87.87-3.62,1.43-5.38.56-1.75,1.03-3.55,1.68-5.26,1.4-3.34,2.58-6.83,4.25-9.98l2.37-4.83c.83-1.58,1.75-3.09,2.62-4.64,7.09-12.3,15.51-23.46,24.52-33.96,18.07-20.99,38.34-39.53,59.28-57.05,20.95-17.53,42.83-33.78,65.07-49.43,44.53-31.28,90.94-59.59,138.19-86.26l4.78,8.3Z"/><path class="cls-1" d="m1322.57,510.05s235.77-45.32,240.52,34.69c4.75,80.01-192.38,194.49-192.38,194.49,0,0,175.47-141.29,153.32-189.75-22.15-48.46-201.46-39.42-201.46-39.42Z"/><path class="cls-1" d="m1411.53,534.47s56.01-3.33,64.96,25.85c8.96,29.18-41.37,73.91-41.37,73.91,0,0,29.62-41.91,21.61-68.72-8.02-26.82-45.2-31.04-45.2-31.04Z"/><path class="cls-1" d="m319.75,911.85s-201.83,130.01-150.02,191.16c51.8,61.15,273.45,7.84,273.45,7.84,0,0-224.48,18.96-241.93-31.39-17.44-50.35,118.5-167.62,118.5-167.62Z"/><path class="cls-1" d="m273.79,1011.67s-42.81,36.26-29.14,63.55c13.67,27.29,80.97,24.9,80.97,24.9,0,0-50.36-9.85-63.09-34.79-12.72-24.93,11.27-53.65,11.27-53.65Z"/><path class="cls-1" d="m424.81,899.79s101.21,41.35,248.5,6.91c0,0-127.54,1.96-178.38-15.9-50.84-17.86-78.62-39.49-78.62-39.49,0,0,78.62,39.49,194.38,14.95,0,0-87.07-6.07-133.21-25.81-46.13-19.74-59.32-39.03-59.32-39.03,0,0,101.7,76.65,358.64,22.85,0,0-181.66,9.99-251.8-21.97-70.14-31.96-106.4-61.12-106.4-61.12,0,0,101.22,55,237.22,33.28,0,0-174.62-20.14-228.77-66.7,0,0,107.33,36.18,276.26-12.4,0,0-137.42,11.37-203.81-38.48,0,0,32.49,33.4,54.62,40.91,0,0-66.36,4.75-119.09-31.46l-20.17,106.38,9.95,127.07Z"/><path class="cls-1" d="m766,845s-86.11,23.58-137.89,17.02c0,0,58.85,31.03,137.89-17.02Z"/><path class="cls-1" d="m468.16,622.16s23.55,31.52,51.8,47.5l-60.73-22.08,8.93-25.42Z"/><path class="cls-1" d="m472.86,606.62s85.21,42.31,187.33,31.43c0,0-136.97-21.57-170.41-57.32,0,0,118.64,64.41,304.94-56.65,0,0-98.23,32.2-176.47,29.75-88.48-2.77-88.97-38.07-88.97-38.07,0,0,47.56,43.74,150.13-.09,84.03-35.91,95.49-95.6,95.49-95.6,0,0-29.62,55.55-103.03,76.77-73.41,21.22-123.78-2.28-123.78-2.28l23.84-21.09s79.73,23.27,124.86-16.64c28.22-24.96,41.38-60.27,41.38-60.27,0,0-20.21,38.13-57.86,53.21-37.64,15.08-79.54-.89-79.54-.89l-82.79,79.58-45.14,78.15Z"/><path class="cls-1" d="m930.19,371.51s-29.61,69.2-91.72,105.01c-62.1,35.81-77.16,39.11-77.16,39.11,0,0,69.18-11.33,131.27-60.79,62.1-49.45,72.43-78.17,72.43-78.17l-34.83-5.16Z"/><path class="cls-1" d="m1007.18,404.34s-9.36,85.66-121.81,152.56c-112.44,66.89-138.8,69.26-138.8,69.26,0,0,84.71-6.64,166.1-55.63,81.39-49,126.05-148.79,126.05-148.79l-31.54-17.39Z"/><path class="cls-1" d="m1050.52,485.26s-33.34,93.76-184.4,166.71c-132.68,64.08-163.27,62.69-163.27,62.69,0,0,93.62,14.38,234.81-74.96,117.62-74.43,112.86-154.44,112.86-154.44Z"/><path class="cls-1" d="m995.82,749.06s148.89-108.8,189.34-213.99l40.98,54.57,35.82,89.4,13.23,87.53-207.95,121.54s169.37-95.17,178.29-134.24c0,0-191.01,122.95-271.48,133.35,0,0,230.08-114.03,253.1-172.4,0,0-103.03,76.78-177.84,101.29,0,0,165.37-101.75,181.33-170.95,0,0-163.45,161.05-296.62,203.49,0,0,266.74-199.7,277.06-255.72,0,0-105.16,103.81-215.26,156.12Z"/><path class="cls-1" d="m1265.83,879.54s-246.79,119.8-328.78,150.38c0,0,174.47-44.87,228.1-74.55,0,0-11.27,40.01-139.25,102.21,0,0,139.76-39.62,181.61-105.53,0,0,.03,54.6-128.87,141.74-128.91,87.15-179.73,96.58-179.73,96.58,0,0,82.83-11.34,178.8-71.64,80.13-50.34,179.22-159.18,179.22-159.18l8.9-80.01Z"/><path class="cls-1" d="m1027.79,1062.28s-97.39,63.59-206.57,77.3c0,0,40.95,13.62,82.84,2.31,0,0-33.4,32.49-111.04,49.95,0,0,72.95-1.92,153.41-39.62,80.46-37.7,134.09-81.03,134.09-81.03l-118.1,52.78,65.38-61.69Z"/><polygon class="cls-1" points="754.92 1226.22 877.27 1204.5 801.04 1232.31 863.17 1237.45 967.16 1190.33 922.94 1229.89 754.92 1226.22"/><polygon class="cls-1" points="694.19 1204.13 793.02 1191.84 722.44 1220.12 694.19 1204.13"/><path class="cls-1" d="m1147.64,494.77s-53.77,85.06-121.51,134.05c0,0,91.24-113.01,94.98-158.19l26.53,24.14Z"/><path class="cls-2" d="m367.11,1482.69c0-1.49-.54-2.92-1.62-4.27-.54-.4-.94-.67-1.21-.81-1.08-.68-1.89-1.02-2.43-1.02h-16.81c-.54,0-1.22.28-2.03.82-.27.14-.61.48-1.01,1.03-1.08,1.37-1.62,2.81-1.62,4.31v2.25c0,1.92.81,3.42,2.43,4.52.54.41,1.08.75,1.62,1.03,1.08.55,1.89.82,2.43.82v28.36h-55.29v-28.15c1.21-.67,2.16-1.62,2.83-2.83l1.22-3.84,23.69-127.19h73.72l26.32,124.75c.13.95.41,1.83.81,2.64.14.27.74,1.25,1.82,2.93,1.08,1.69,2.29,3.01,3.65,3.95v27.75h-63.79v-28.28c.94-.13,2.06-.84,3.35-2.14,1.28-1.29,1.92-2.75,1.92-4.38v-2.24Zm-14.99-74.15l-6.28,32.2c-.27,2.71.2,4.73,1.42,6.08,1.21,1.35,3.1,1.82,5.67,1.41.94.14,2.09.07,3.44-.2,1.35-.27,2.16-.67,2.43-1.21,1.35-1.75,1.82-3.71,1.42-5.87l-8.1-32.4Z"/><path class="cls-1" d="m434.14,1528.22h-151.06v-41.65l3.76-2.1.53-1.66,24.89-133.61h87.67l27.85,132.06c.07.14.58.94,1.38,2.17.62.98,1.11,1.4,1.35,1.57l3.64,2.54v40.68Zm-63.8-16.99h46.8v-15.55c-.83-.94-1.6-1.96-2.31-3.08-1.7-2.65-2.01-3.2-2.28-3.75-.75-1.5-1.28-3.15-1.55-4.88l-24.85-117.77h-59.77l-22.65,121.25-1.48,4.67-.42.75c-.51.92-1.1,1.78-1.76,2.56v15.8h38.29v-14.43c-.17-.13-.35-.25-.52-.38-3.85-2.69-5.96-6.73-5.96-11.41v-2.25c0-3.41,1.19-6.73,3.46-9.59.54-.73,1.59-2.01,3.2-2.98,2.17-1.41,4.3-2.09,6.5-2.09h16.81c2.75,0,5.1,1.19,6.68,2.16.61.34,1.25.77,2.05,1.37l.88.66.68.86c2.27,2.86,3.47,6.16,3.47,9.56v2.24c0,3.89-1.52,7.47-4.39,10.36-.29.3-.58.57-.88.84v15.1Zm-19.08-54.36c-5.27,0-8.51-2.38-10.31-4.37-1.98-2.19-4.2-6.16-3.56-12.61l.12-.78,13.59-69.7,17.48,69.97c.82,4.38-.11,8.57-2.7,12.17-1.59,2.48-4.22,4.09-7.84,4.82-1.45.29-2.79.43-4.08.43h0c-.3,0-.59,0-.87-.03-.62.06-1.24.09-1.83.09Z"/><path class="cls-2" d="m438.29,1519.72v-26.97c1.22-.53,2.26-1.45,3.14-2.73.87-1.28,1.45-2.26,1.72-2.94.41-1.09.61-2.23.61-3.45v-89.22c0-1.49-.2-2.7-.61-3.66-.41-.94-1.11-2.19-2.12-3.75-1.01-1.55-2.4-2.87-4.15-3.96v-25.34h82.62c8.37,0,15.29.61,20.76,1.83,5.47,1.21,10.03,3.78,13.67,7.7,4.59,4.87,7.76,9.13,9.52,12.77,2.29,4.6,3.44,9.81,3.44,15.62v77.87c0,7.44-.91,14.15-2.73,20.18-1.82,6.01-4.69,10.64-8.61,13.89-5.67,4.73-11.51,7.94-17.52,9.63-6.01,1.69-13.13,2.53-21.36,2.53h-78.38Zm75.16-36.05c1.21-.95,1.97-2.24,2.31-3.86.34-1.62.5-3.58.5-5.88v-70.83c0-1.89-.2-3.62-.6-5.17-.4-1.56-1.21-2.88-2.41-3.96-2.27-2.03-4.61-3.04-7.02-3.04h-8.43c-1.61,0-2.54.47-2.81,1.42-.27.55-.4,1.69-.4,3.45v86.45c0,1.22.2,2.17.6,2.85.27.4.74.61,1.41.61h10.64c2.41,0,4.48-.68,6.22-2.03Z"/><path class="cls-1" d="m516.67,1528.22h-86.87v-41l4.66-2.06c.35-.5.61-.89.78-1.21.02-.08.03-.18.03-.32v-89.22c0-.25-.01-.42-.02-.53-.17-.33-.55-1.04-1.33-2.23-.32-.5-.82-.95-1.5-1.37l-4.03-2.49v-38.58h91.12c9.07,0,16.46.66,22.6,2.03,7.16,1.59,13.23,5.03,18.05,10.21,5.2,5.51,8.79,10.39,10.95,14.87,2.82,5.67,4.28,12.19,4.28,19.3v77.87c0,8.24-1.04,15.85-3.1,22.64-2.3,7.6-6.11,13.65-11.32,17.96-6.54,5.45-13.48,9.26-20.64,11.27-6.74,1.9-14.7,2.86-23.67,2.86Zm-69.88-16.99h69.88c7.41,0,13.83-.75,19.06-2.22,4.83-1.36,9.66-4.04,14.37-7.97,2.62-2.17,4.6-5.47,5.92-9.83,1.57-5.18,2.37-11.15,2.37-17.71v-77.87c0-4.52-.83-8.39-2.55-11.83-.99-2.06-3.16-5.49-8.1-10.74-2.51-2.7-5.55-4.4-9.33-5.24-4.85-1.08-11.21-1.62-18.92-1.62h-74.13v12.77c1.05,1.04,1.98,2.17,2.77,3.39,1.29,1.97,2.21,3.62,2.82,5.04.88,2.06,1.3,4.34,1.3,7.01v89.22c0,2.22-.39,4.38-1.14,6.42-.59,1.47-1.38,2.88-2.66,4.75-.52.75-1.08,1.45-1.67,2.09v14.34Zm60.45-17.03h-10.64c-3.54,0-6.64-1.61-8.5-4.42l-.21-.33c-1.19-2.01-1.8-4.42-1.8-7.2v-86.45c0-2.89.29-4.86.98-6.54,1.28-3.43,4.67-6.83,10.73-6.83h8.43c4.54,0,8.81,1.75,12.68,5.2,2.49,2.24,4.16,4.98,4.98,8.17.58,2.27.87,4.72.87,7.3v70.83c0,2.91-.22,5.41-.68,7.61-.73,3.57-2.59,6.63-5.38,8.82-3.23,2.52-7.19,3.84-11.46,3.84Zm-4.14-16.99h4.14c.13,0,.25,0,.35-.02.1-.76.18-1.82.18-3.26v-70.83c0-1.16-.11-2.2-.34-3.07-.66-.46-1.14-.61-1.2-.61h-3.14v77.79Z"/><path class="cls-2" d="m654.89,1392.94c.14-1.75-.67-3.24-2.43-4.46-.54-.41-1.08-.74-1.62-1.01-1.09-.54-1.89-.81-2.43-.81v-28.35h57.72v28.18c-1.62.68-2.87,1.49-3.75,2.44-.88.95-1.59,1.76-2.13,2.43-.54.81-.88,1.7-1.01,2.64l-24.51,125.72h-69.67l-26.33-124.1c-.14-.95-.4-1.83-.81-2.64-.14-.27-.75-1.25-1.82-2.94-1.08-1.69-2.3-3.01-3.64-3.96v-27.78h63.79v28.15c-.95.13-1.99.78-3.14,1.92-1.15,1.15-1.59,2.67-1.32,4.56l10.74,64.4,1.42,1.01c.54,0,.88-.41,1.01-1.21l9.92-64.2Z"/><path class="cls-1" d="m681.74,1528.22h-83.55l-27.85-131.37c-.05-.12-.56-.94-1.39-2.23-.46-.72-.95-1.28-1.37-1.57l-3.61-2.54v-40.69h150.66v42.34l-5.22,2.18c-.64.27-.88.46-.88.46-.36.39-.7.77-1,1.11l-25.79,132.32Zm-69.79-16.99h55.78l23.13-118.67c.34-2.11,1.11-4.1,2.31-5.9l.44-.6c.65-.81,1.5-1.79,2.56-2.93.44-.48.93-.94,1.45-1.38v-14.94h-40.72v14.41c.22.15.43.31.65.46,3.96,2.74,6.17,7.15,5.81,11.91l-.07.64-9.92,64.2c-.83,4.99-4.69,8.41-9.41,8.41h-2.72l-6.5-4.64-11.31-67.87c-.68-4.75.65-8.93,3.71-11.98.21-.21.42-.41.64-.61v-14.95h-46.8v15.59c.82.93,1.59,1.96,2.3,3.07,1.32,2.07,2.04,3.29,2.21,3.61.81,1.64,1.34,3.29,1.63,5.02l24.85,117.14Zm28.83-116.07l2.68,16.08,2.49-16.08h-5.17Z"/><path class="cls-2" d="m770.86,1451.67c-1.23,0-2.04.68-2.45,2.04-.27.4-.51,1.12-.72,2.14-.2,1.02-.3,2.21-.3,3.57v23.03c0,1.49.13,2.38.4,2.65.41.54,1.75.81,4.05.81h4.86c1.08,0,2.36-.34,3.85-1.02,1.48-.68,2.76-1.81,3.85-3.37,1.08-1.57,1.85-2.93,2.33-4.09.47-1.16.71-2.69.71-4.59v-11.44h47.59v58.33h-123.94v-26.97c1.21-.53,2.26-1.45,3.14-2.73.87-1.28,1.45-2.26,1.72-2.94.41-1.09.61-2.23.61-3.45v-89.22c0-1.49-.2-2.7-.61-3.66-.4-.94-1.11-2.19-2.12-3.75-1.01-1.55-2.4-2.87-4.15-3.96v-25.34h125.36v52.65h-48.61v-8.1c0-1.48-.27-2.76-.8-3.84-.27-.54-1.07-1.76-2.4-3.65-.8-1.08-1.9-1.89-3.31-2.43-1.41-.54-2.77-.81-4.11-.81h-3.81c-2.54,0-3.94.2-4.21.61-.27.81-.4,1.55-.4,2.23v21.87c0,1.89.2,3.04.61,3.45.54.53,1.55.81,3.04.81h30.38v31.19h-30.55Z"/><path class="cls-1" d="m843.53,1528.22h-140.94v-41l4.66-2.06c.35-.5.61-.89.78-1.21.02-.08.03-.18.03-.32v-89.22c0-.25-.01-.42-.02-.53-.16-.32-.53-1.01-1.33-2.23-.33-.5-.82-.95-1.5-1.36l-4.04-2.49v-38.58h142.36v69.65h-33.62v34.04h33.62v75.32Zm-123.94-16.99h106.95v-41.33h-30.6v2.94c0,3.03-.43,5.58-1.33,7.79-.73,1.77-1.77,3.62-3.2,5.71-1.98,2.86-4.44,4.96-7.31,6.28-2.64,1.21-5.05,1.79-7.39,1.79h-4.86c-2.22,0-7.34,0-10.53-3.81-2.43-2.83-2.43-6.38-2.43-8.15v-23.03c0-1.88.16-3.63.46-5.19.32-1.58.73-2.88,1.28-4,1.72-4.32,5.63-7.05,10.22-7.05h22.06v-14.19h-21.88c-3.81,0-6.86-1.11-9.04-3.3-2.73-2.72-3.1-6.3-3.1-9.46v-21.87c0-1.58.28-3.22.83-4.89l.34-1.05.6-.92c2.91-4.48,8.18-4.48,11.33-4.48h3.81c2.36,0,4.77.46,7.14,1.37,2.95,1.15,5.32,2.92,7.09,5.29,2.1,2.98,2.78,4.11,3.2,4.94,1.07,2.17,1.63,4.6,1.69,7.23h31.61v-35.66h-108.37v12.77c1.05,1.03,1.98,2.17,2.77,3.39,1.32,2.03,2.22,3.63,2.83,5.06.87,2.04,1.29,4.32,1.29,6.98v89.22c0,2.22-.38,4.38-1.14,6.42-.59,1.47-1.38,2.88-2.66,4.75-.52.75-1.07,1.45-1.66,2.09v14.34Zm56.3-33.82h.51c.11-.03.32-.11.62-.24h0s.15-.12.41-.49c.95-1.38,1.32-2.16,1.44-2.45-.01.03.08-.31.08-1.38v-12.66h-3.06v17.23Zm0-65.42h2.04v-9.73c-.09-.34-.57-1.05-1.28-2.07-.34-.12-.59-.16-.76-.16v11.96Z"/><path class="cls-2" d="m924.85,1423.73c.13.4.81.61,2.03.61l1.21-1.02v-29.05c0-1.08-.07-1.89-.2-2.44-.13-.68-.81-1.96-2.02-3.86l-2.43-2.85v-27.02h53.26v26.97c-1.49.41-2.83,1.35-4.05,2.84-1.62,2.02-2.43,4.05-2.43,6.08v125.52h-52.25l-27.54-62.78-1.21-1.21-1.42,1.01v27.34c0,2.7.41,4.69,1.22,5.97.81,1.28,2.03,2.26,3.65,2.93v26.94l-51.44-.2v-26.94c1.48-.4,2.94-1.48,4.35-3.24,1.42-1.75,2.12-3.64,2.12-5.67v-84.45c0-1.21-.03-2.39-.1-3.54-.07-1.15-.32-2.54-.73-4.15-1.11-3.51-3.26-6.35-6.46-8.51v-24.91h58.33l26.12,65.62Z"/><path class="cls-1" d="m901.14,1528.25l-68.43-.27v-41.89l5.78-1.58c.1-.1.26-.27.46-.51.21-.25.25-.38.25-.38v-84.41c-.01-1.04-.04-2.05-.1-3.04-.02-.3-.1-1-.42-2.29-.54-1.57-1.52-2.79-3.04-3.83l-3.74-2.53v-37.92h72.58l10.45,26.24v-26.24h70.25v41.96l-5.85,1.59s-.06.07-.1.12c-.45.56-.54.88-.54.88v133.86s-66.29,0-66.29,0l-11.26-25.68v25.92Zm-51.44-17.2l34.45.14v-13.94c-.89-.85-1.66-1.81-2.33-2.86-1.71-2.7-2.53-6.14-2.53-10.52v-31.73l10.84-7.7,7.43,7.41,25.96,59.17h38.2v-117.02c0-4,1.45-7.83,4.3-11.39.69-.85,1.42-1.61,2.18-2.29v-13.71h-36.27v15.39l1.09,1.4c1.86,2.91,2.76,4.78,3.15,6.58.28,1.2.41,2.57.41,4.3v33l-6.61,5.56h-3.1c-6.72,0-9.15-4.06-9.92-5.96h0l-23.99-60.26h-44.07v12.42c2.81,2.77,4.84,6.09,6.06,9.93l.13.46c.56,2.18.88,4.07.98,5.76.08,1.32.12,2.66.12,4.04v84.45c0,3.96-1.39,7.78-4.02,11.02-.78.97-1.61,1.84-2.46,2.6v13.76Z"/><path class="cls-2" d="m1074.2,1483.61c0,2.3.78,4.36,2.33,6.18,1.55,1.83,3.34,2.81,5.37,2.94v26.98h-61.56v-26.98c2.03-.13,3.78-1.08,5.26-2.84.68-.81,1.15-1.49,1.42-2.03.81-1.35,1.21-2.77,1.21-4.26v-89.45c0-1.35-.13-2.29-.4-2.84-.14-.27-.74-.47-1.82-.61h-1.82c-1.08-.13-2.3.13-3.64.81-1.35.67-2.23,1.35-2.63,2.02-.95,1.75-1.42,3.58-1.42,5.47v31.18h-34.02v-72.09h137.31v72.09h-34.03v-30.58c0-1.88-.47-3.71-1.42-5.46-.41-.67-1.28-1.35-2.63-2.02-1.35-.68-2.56-.94-3.64-.81h-1.42c-1.21,0-1.89.2-2.03.6-.27.54-.41,1.77-.41,3.66v88.03Z"/><path class="cls-1" d="m1090.4,1528.22h-78.56v-43.43l7.36-.48c.15-.18.26-.31.33-.43l.2-.36v-44.8s-45.77,0-45.77,0v-89.09h154.3v89.09h-45.57v44.91c0,.19,0,.32.3.67,0,0,.01.01.01.01l7.38.51v43.41Zm-61.56-16.99h44.57v-12.84c-1.2-.85-2.33-1.88-3.35-3.09-2.83-3.33-4.34-7.37-4.34-11.68v-88.03c0-3.22.33-5.31,1.13-7.08.94-2.16,3.45-5.68,9.8-5.68h1.04c2.51-.18,5.2.4,7.83,1.71,2.84,1.42,4.84,3.13,6.11,5.24l.2.35c1.62,3,2.43,6.19,2.43,9.49v22.09h17.03v-55.1h-120.32v55.1h17.03v-22.69c0-3.32.82-6.51,2.44-9.51l.2-.36c1.27-2.1,3.26-3.81,6.1-5.23,2.64-1.32,5.3-1.87,7.82-1.71l2.54.07c1.5.2,6.08.79,8.31,5.2.92,1.86,1.32,3.96,1.32,6.68v89.45c0,2.95-.76,5.76-2.28,8.38-.56,1.05-1.31,2.12-2.32,3.35-1.01,1.2-2.11,2.21-3.3,3.05v12.83Z"/><path class="cls-2" d="m1188.12,1523.97c-15.39,0-28.35-3.31-38.88-9.92-11.75-7.43-17.62-17.62-17.62-30.58v-86.68c0-2.7-.75-5.27-2.23-7.7-.54-.81-1.22-1.55-2.03-2.23-.81-.67-1.42-1.15-1.82-1.42v-27.34h58.73v27.34c-1.89.67-3.24,1.89-4.05,3.65-.13.41-.34,1.15-.61,2.23-.27,1.08-.41,2.16-.41,3.24v84.85c0,3.11,1.06,5.67,3.18,7.7,2.12,2.03,4.77,3.04,7.95,3.04,2.65,0,4.97-1.02,6.96-3.04,1.99-2.02,2.98-4.38,2.98-7.09v-83.44c0-2.7-.65-5.03-1.93-6.99-1.28-1.96-2.67-3.34-4.15-4.15v-27.34h56.91v27.34c-.68.41-1.28.74-1.82,1.01-.94.68-1.69,1.42-2.23,2.23-.54.81-1.15,1.92-1.82,3.34-.68,1.42-1.01,3-1.01,4.76v85.86c0,12.96-5.67,23.22-17.01,30.79-10.4,7.02-23.43,10.53-39.08,10.53Z"/><path class="cls-1" d="m1188.12,1532.47c-16.95,0-31.55-3.78-43.41-11.23-14.13-8.93-21.59-21.99-21.59-37.77v-86.68c0-1.06-.27-2.04-.86-3.07-.08-.1-.2-.21-.33-.32-.51-.42-.88-.73-1.14-.9l-3.66-2.54-.09-4.51v-35.84h142.56v40.66l-4.14,2.47c-.49.29-.95.55-1.38.79-.25.33-.63.98-1.18,2.14-.16.34-.19.8-.19,1.12v85.86c0,15.92-7,28.66-20.8,37.85-11.74,7.93-26.49,11.96-43.8,11.96Zm-54.08-151.01c.9.89,1.71,1.87,2.41,2.9l.19.3c2.31,3.77,3.47,7.85,3.47,12.13v86.68c0,10.07,4.34,17.5,13.66,23.39,9.09,5.71,20.65,8.61,34.34,8.61s25.41-3.05,34.33-9.08c9.07-6.04,13.27-13.58,13.27-23.74v-85.86c0-3.04.62-5.87,1.84-8.43.84-1.77,1.63-3.21,2.41-4.38.72-1.08,1.6-2.1,2.63-3.03v-14.34h-39.92v14.83c.98,1.03,1.9,2.2,2.76,3.51,2.2,3.36,3.32,7.28,3.32,11.65v83.44c0,4.92-1.87,9.44-5.42,13.04-3.58,3.65-8.09,5.58-13.02,5.58-5.34,0-10.12-1.87-13.82-5.39-3.8-3.63-5.81-8.42-5.81-13.84v-84.85c0-1.78.22-3.56.66-5.31.34-1.37.61-2.32.78-2.83l.35-.88c.82-1.78,1.92-3.33,3.27-4.63v-14.3h-41.74v14.85Zm53.87,11.71c-.02.07-.04.14-.05.22-.1.41-.15.79-.15,1.17v84.85c0,1.03.28,1.29.55,1.56.36.34.82.68,2.08.68.22,0,.41,0,.89-.5.55-.56.55-.83.55-1.13v-83.44c0-1.51-.41-2.13-.54-2.34-.7-1.07-1.14-1.36-1.14-1.36l-.55-.3-1.63.58Z"/><path class="cls-2" d="m1379.6,1465.38v18.45c0,2.29.51,4.22,1.52,5.78,1.01,1.55,2.13,2.61,3.34,3.14v26.97h-55.29v-46.73c0-2.17-.3-4.17-.9-6-.6-1.83-1.7-3.56-3.3-5.19-.8-.81-1.47-1.42-2-1.83-1.07-.81-2.41-1.22-4.01-1.22h-2.8c-2.67,0-4.07.14-4.2.41-.27.82-.4,1.76-.4,2.84v21.75c0,2.3.5,4.23,1.52,5.79,1.01,1.56,2.12,2.61,3.34,3.15v27.02h-59.94v-26.97c1.21-.53,2.22-1.38,3.04-2.53.81-1.15,1.45-2.27,1.92-3.34.47-1.09.71-2.17.71-3.25v-84.96c0-2.29-.1-3.95-.3-4.97-.2-1.01-.81-2.29-1.82-3.85-1.01-1.55-2.26-2.73-3.75-3.55v-28.59h85.46c10.8,0,20.12,4.12,27.95,12.37,7.83,8.24,11.75,17.71,11.75,28.38,0,9.6-1.01,17.17-3.04,22.71-2.7,7.3-7.43,12.71-14.18,16.22-.81.41-1.21,1.22-1.21,2.43,0,1.08.34,1.82,1.01,2.23,5.8,3.52,9.59,6.36,11.34,8.53,2.84,3.51,4.25,8.45,4.25,14.8Zm-48-55.62c0-5-.41-8.84-1.22-11.55-1.35-4.45-3.78-6.68-7.29-6.68h-8.51c-1.21,0-2.09.54-2.63,1.62-.27.54-.41,1.15-.41,1.83v24.3c0,1.08.03,2.19.1,3.33.07,1.16.31,2,.71,2.53.67.81,1.62,1.21,2.83,1.21h8.91c3.1,0,5.13-1.62,6.07-4.86.95-3.24,1.42-7.16,1.42-11.74Z"/><path class="cls-1" d="m1392.96,1528.22h-144.99v-40.99l4.72-2.1c.41-.6.73-1.16.96-1.69l-.02-84.77c0-1.8-.07-2.71-.11-3.09-.09-.19-.28-.54-.64-1.1-.31-.47-.55-.63-.7-.72l-4.41-2.42v-42.12h93.96c13.17,0,24.65,5.05,34.11,15.02,9.34,9.84,14.08,21.36,14.08,34.24,0,10.71-1.16,19.09-3.56,25.63-2.32,6.27-5.84,11.49-10.53,15.6,2.73,2.02,4.73,3.83,6.12,5.54,4.08,5.06,6.15,11.83,6.15,20.15v18.45c0,.84.15,1.15.15,1.16.06.08.11.16.15.21l4.56,2.02v41Zm-55.29-16.99h38.29v-14.42c-.7-.77-1.36-1.62-1.97-2.56-1.92-2.95-2.89-6.45-2.89-10.41v-18.45c0-4.33-.8-7.51-2.37-9.47-.27-.34-2.04-2.29-9.13-6.6-3.23-1.93-5.1-5.41-5.1-9.49,0-4.42,2.2-8.16,5.89-10.02,4.76-2.48,8.07-6.28,10.03-11.58,1.66-4.54,2.51-11.2,2.51-19.76s-3.08-15.87-9.41-22.53c-6.21-6.55-13.34-9.73-21.79-9.73h-76.97v16.02c.87.9,1.66,1.89,2.37,2.98,1.65,2.55,2.61,4.72,3.04,6.84.32,1.61.46,3.66.46,6.63v84.96c0,2.24-.48,4.47-1.41,6.63-.73,1.65-1.66,3.27-2.78,4.86-.46.65-.95,1.26-1.48,1.82v14.29h42.95v-14.48c-.7-.77-1.36-1.63-1.96-2.57-1.92-2.94-2.89-6.45-2.89-10.42v-21.75c0-1.99.28-3.85.83-5.52l.43-1.05c2.53-5.18,7.91-5.18,11.84-5.18h2.8c3.44,0,6.6,1.02,9.14,2.94.9.7,1.83,1.54,2.91,2.63,2.54,2.58,4.33,5.43,5.33,8.51.88,2.68,1.32,5.59,1.32,8.65v38.24Zm-17.3-26.07l.31.14v-12.31c0-1.26-.16-2.38-.48-3.35-.04-.12-.09-.24-.15-.36v14.47c0,.72.11,1.09.15,1.17.06.09.11.17.16.23Zm3.75-50.3h-8.91c-3.74,0-7.07-1.52-9.36-4.28l-.26-.32c-1.43-1.89-2.24-4.3-2.4-7.14-.08-1.31-.12-2.6-.12-3.84v-24.3c0-2.02.44-3.92,1.31-5.64,1.96-3.93,5.79-6.3,10.22-6.3h8.51c3.48,0,11.94,1.24,15.42,12.72,1.07,3.55,1.58,8.12,1.58,14.01,0,5.37-.59,10.12-1.76,14.12-2,6.88-7.32,10.98-14.23,10.98Zm-4.06-16.99h2.29c.52-2.32.77-5.01.77-8.11,0-5.44-.54-8.04-.86-9.1-.07-.25-.15-.46-.22-.63h-1.98v17.84Z"/><path class="cls-2" d="m1451.62,1451.67c-1.23,0-2.04.68-2.45,2.04-.27.4-.51,1.12-.71,2.14-.2,1.02-.3,2.21-.3,3.57v23.03c0,1.49.13,2.38.4,2.65.41.54,1.76.81,4.05.81h4.86c1.08,0,2.36-.34,3.84-1.02,1.49-.68,2.77-1.81,3.85-3.37,1.08-1.57,1.85-2.93,2.33-4.09.47-1.16.71-2.69.71-4.59v-11.44h47.59v58.33h-123.94v-26.97c1.21-.53,2.26-1.45,3.14-2.73.88-1.28,1.45-2.26,1.72-2.94.41-1.09.61-2.23.61-3.45v-89.22c0-1.49-.2-2.7-.61-3.66-.41-.94-1.11-2.19-2.13-3.75-1.01-1.55-2.4-2.87-4.15-3.96v-25.34h125.36v52.65h-48.6v-8.1c0-1.48-.27-2.76-.8-3.84-.27-.54-1.07-1.76-2.41-3.65-.8-1.08-1.91-1.89-3.31-2.43-1.41-.54-2.77-.81-4.11-.81h-3.8c-2.54,0-3.94.2-4.21.61-.27.81-.4,1.55-.4,2.23v21.87c0,1.89.2,3.04.6,3.45.54.53,1.55.81,3.04.81h30.38v31.19h-30.56Z"/><path class="cls-1" d="m1524.29,1528.22h-140.94v-41l4.66-2.06c.35-.51.61-.89.78-1.21.01-.08.03-.18.03-.32v-89.22c0-.25-.01-.42-.02-.53-.17-.33-.55-1.03-1.33-2.23-.33-.5-.82-.95-1.5-1.37l-4.03-2.49v-38.58h142.35v69.65h-33.62v34.04h33.62v75.32Zm-123.94-16.99h106.95v-41.33h-30.6v2.94c0,3.05-.44,5.6-1.35,7.82-.71,1.73-1.75,3.58-3.19,5.67-1.98,2.86-4.43,4.96-7.32,6.28-2.63,1.21-5.04,1.79-7.38,1.79h-4.86c-2.23,0-7.35,0-10.54-3.82-2.41-2.82-2.41-6.37-2.41-8.13v-23.03c0-1.93.15-3.64.46-5.22.31-1.56.72-2.85,1.27-3.97,1.72-4.32,5.62-7.06,10.22-7.06h22.07v-14.19h-21.89c-3.81,0-6.85-1.1-9.04-3.29-2.74-2.76-3.1-6.33-3.1-9.47v-21.87c0-1.58.28-3.23.83-4.89l.35-1.07.62-.94c2.92-4.44,8.17-4.44,11.31-4.44h3.8c2.36,0,4.77.46,7.14,1.37,2.95,1.15,5.32,2.92,7.09,5.29,2.09,2.95,2.77,4.08,3.19,4.92,1.08,2.19,1.64,4.62,1.69,7.25h31.62v-35.66h-108.37v12.77c1.05,1.04,1.98,2.17,2.77,3.39,1.28,1.96,2.2,3.62,2.81,5.04.88,2.06,1.3,4.34,1.3,7.01v89.22c0,2.22-.38,4.38-1.14,6.42-.59,1.47-1.39,2.89-2.66,4.76-.52.75-1.07,1.45-1.66,2.08v14.34Zm56.3-33.82h.51c.12-.03.32-.11.62-.25.01-.01.18-.16.4-.48.96-1.4,1.33-2.18,1.44-2.46,0,.02.09-.28.09-1.39v-12.66h-3.06v17.23Zm0-65.42h2.04v-9.73c0-.08,0-.14,0-.2-.28-.44-.71-1.06-1.28-1.87-.29-.1-.55-.16-.76-.16v11.96Z"/></svg>